<mxfile host="Electron" modified="2024-03-12T13:24:29.881Z" agent="Mozilla/5.0 (Windows NT 10.0; Win64; x64) AppleWebKit/537.36 (KHTML, like Gecko) draw.io/22.1.16 Chrome/120.0.6099.109 Electron/28.1.0 Safari/537.36" etag="RgDojh1mshfgC8nI5GH0" version="22.1.16" type="device">
  <diagram name="Seite-1" id="0riYwULED3BxiixQsZMh">
    <mxGraphModel dx="1793" dy="1088" grid="1" gridSize="10" guides="1" tooltips="1" connect="1" arrows="1" fold="1" page="1" pageScale="1" pageWidth="827" pageHeight="1169" math="0" shadow="0">
      <root>
        <mxCell id="0" />
        <mxCell id="1" parent="0" />
        <mxCell id="Oq57M_BDFYK8j7h-nGXd-11" value="" style="html=1;verticalLabelPosition=bottom;labelBackgroundColor=#ffffff;verticalAlign=top;shadow=0;dashed=0;strokeWidth=1;shape=mxgraph.ios7.misc.iphone;strokeColor=#c0c0c0;" vertex="1" parent="1">
          <mxGeometry width="200" height="400" as="geometry" />
        </mxCell>
        <mxCell id="Oq57M_BDFYK8j7h-nGXd-12" value="" style="html=1;strokeWidth=1;shadow=0;dashed=0;shape=mxgraph.ios7ui.appBar;fillColor=#ffffff;gradientColor=none;sketch=0;hachureGap=4;pointerEvents=0;" vertex="1" parent="1">
          <mxGeometry x="13" y="61" width="174" height="14" as="geometry" />
        </mxCell>
        <mxCell id="Oq57M_BDFYK8j7h-nGXd-13" value="CARRIER" style="shape=rect;sketch=0;align=left;fontSize=8;spacingLeft=24;fontSize=4;fontColor=#aaaaaa;strokeColor=none;fillColor=none;spacingTop=4;hachureGap=4;pointerEvents=0;html=1;" vertex="1" parent="Oq57M_BDFYK8j7h-nGXd-12">
          <mxGeometry y="0.5" width="50" height="13" relative="1" as="geometry">
            <mxPoint y="-6.5" as="offset" />
          </mxGeometry>
        </mxCell>
        <mxCell id="Oq57M_BDFYK8j7h-nGXd-14" value="11:55PM" style="shape=rect;sketch=0;fontSize=8;fontColor=#aaaaaa;strokeColor=none;fillColor=none;spacingTop=4;hachureGap=4;pointerEvents=0;html=1;" vertex="1" parent="Oq57M_BDFYK8j7h-nGXd-12">
          <mxGeometry x="0.5" y="0.5" width="50" height="13" relative="1" as="geometry">
            <mxPoint x="-30" y="-6.5" as="offset" />
          </mxGeometry>
        </mxCell>
        <mxCell id="Oq57M_BDFYK8j7h-nGXd-15" value="98%" style="shape=rect;align=right;fontSize=8;spacingRight=19;fontSize=6;fontColor=#aaaaaa;strokeColor=none;fillColor=none;spacingTop=4;sketch=0;hachureGap=4;pointerEvents=0;html=1;" vertex="1" parent="Oq57M_BDFYK8j7h-nGXd-12">
          <mxGeometry x="1" y="0.5" width="45" height="13" relative="1" as="geometry">
            <mxPoint x="-47" y="-8" as="offset" />
          </mxGeometry>
        </mxCell>
        <mxCell id="Oq57M_BDFYK8j7h-nGXd-22" value="" style="html=1;verticalLabelPosition=bottom;labelBackgroundColor=#ffffff;verticalAlign=top;shadow=0;dashed=0;strokeWidth=1;shape=mxgraph.ios7.misc.iphone;strokeColor=#c0c0c0;" vertex="1" parent="1">
          <mxGeometry x="240" width="200" height="400" as="geometry" />
        </mxCell>
        <mxCell id="Oq57M_BDFYK8j7h-nGXd-23" value="" style="html=1;strokeWidth=1;shadow=0;dashed=0;shape=mxgraph.ios7ui.appBar;fillColor=#ffffff;gradientColor=none;sketch=0;hachureGap=4;pointerEvents=0;" vertex="1" parent="1">
          <mxGeometry x="253" y="60.99999999999997" width="174" height="15" as="geometry" />
        </mxCell>
        <mxCell id="Oq57M_BDFYK8j7h-nGXd-24" value="CARRIER" style="shape=rect;sketch=0;align=left;fontSize=8;spacingLeft=24;fontSize=4;fontColor=#aaaaaa;strokeColor=none;fillColor=none;spacingTop=4;hachureGap=4;pointerEvents=0;html=1;" vertex="1" parent="Oq57M_BDFYK8j7h-nGXd-23">
          <mxGeometry y="0.5" width="50" height="13" relative="1" as="geometry">
            <mxPoint y="-6.5" as="offset" />
          </mxGeometry>
        </mxCell>
        <mxCell id="Oq57M_BDFYK8j7h-nGXd-25" value="11:55PM" style="shape=rect;sketch=0;fontSize=8;fontColor=#aaaaaa;strokeColor=none;fillColor=none;spacingTop=4;hachureGap=4;pointerEvents=0;html=1;" vertex="1" parent="Oq57M_BDFYK8j7h-nGXd-23">
          <mxGeometry x="0.5" y="0.5" width="50" height="13" relative="1" as="geometry">
            <mxPoint x="-30" y="-6.5" as="offset" />
          </mxGeometry>
        </mxCell>
        <mxCell id="Oq57M_BDFYK8j7h-nGXd-26" value="98%" style="shape=rect;align=right;fontSize=8;spacingRight=19;fontSize=6;fontColor=#aaaaaa;strokeColor=none;fillColor=none;spacingTop=4;sketch=0;hachureGap=4;pointerEvents=0;html=1;" vertex="1" parent="Oq57M_BDFYK8j7h-nGXd-23">
          <mxGeometry x="1" y="0.5" width="45" height="13" relative="1" as="geometry">
            <mxPoint x="-46" y="-8" as="offset" />
          </mxGeometry>
        </mxCell>
        <mxCell id="Oq57M_BDFYK8j7h-nGXd-27" value="" style="shape=rect;fillColor=#F7F7F7;strokeColor=none;" vertex="1" parent="1">
          <mxGeometry x="253" y="320" width="174" height="20" as="geometry" />
        </mxCell>
        <mxCell id="Oq57M_BDFYK8j7h-nGXd-28" value="14.03.2024" style="html=1;strokeWidth=1;shadow=0;dashed=0;shape=mxgraph.ios7ui.marginRect;rx=3;ry=3;rectMarginLeft=25;rectMarginRight=25;rectMarginTop=3;rectMarginBottom=3;fillColor=#FBFBFB;strokeColor=#B3B3B3;fontColor=#B3B3B3;align=left;spacingLeft=29;fontSize=8;" vertex="1" parent="Oq57M_BDFYK8j7h-nGXd-27">
          <mxGeometry width="176.99999999999997" height="20" as="geometry" />
        </mxCell>
        <mxCell id="Oq57M_BDFYK8j7h-nGXd-30" value="" style="shape=rect;strokeColor=none;fillColor=#ffffff;gradientColor=none;shadow=0;sketch=1;hachureGap=4;pointerEvents=0;fontFamily=Architects Daughter;fontSource=https%3A%2F%2Ffonts.googleapis.com%2Fcss%3Ffamily%3DArchitects%2BDaughter;fontSize=20;" vertex="1" parent="1">
          <mxGeometry x="258" y="110" width="164" height="210" as="geometry" />
        </mxCell>
        <mxCell id="Oq57M_BDFYK8j7h-nGXd-31" value="März 2024" style="shape=text;align=center;verticalAlign=middle;fontSize=5;fontColor=#999999;strokeColor=none;fillColor=none;spacingTop=0;resizeWidth=1;sketch=0;hachureGap=4;pointerEvents=0;fontFamily=Verdana;whiteSpace=wrap;html=1;" vertex="1" parent="Oq57M_BDFYK8j7h-nGXd-30">
          <mxGeometry width="164" height="10" relative="1" as="geometry">
            <mxPoint as="offset" />
          </mxGeometry>
        </mxCell>
        <mxCell id="Oq57M_BDFYK8j7h-nGXd-32" value="Wann hat deine Dienstreise angefangen?" style="html=1;strokeWidth=1;shadow=0;dashed=0;shape=mxgraph.ios7ui.callout;strokeColor=none;fillColor=#E7E6EC;align=left;verticalAlign=middle;fontSize=6;spacingLeft=17;fontColor=#000000;spacingTop=0;whiteSpace=wrap;resizeWidth=1;sketch=0;hachureGap=4;pointerEvents=0;fontFamily=Verdana;" vertex="1" parent="Oq57M_BDFYK8j7h-nGXd-30">
          <mxGeometry width="100" height="30" relative="1" as="geometry">
            <mxPoint y="15" as="offset" />
          </mxGeometry>
        </mxCell>
        <mxCell id="Oq57M_BDFYK8j7h-nGXd-33" value="&lt;div style=&quot;text-align: justify; line-height: 140%;&quot;&gt;&lt;span style=&quot;background-color: initial;&quot;&gt;11.03.2024&lt;/span&gt;&lt;/div&gt;" style="html=1;strokeWidth=1;shadow=0;dashed=0;shape=mxgraph.ios7ui.callout;strokeColor=none;fillColor=#0680FF;flipH=1;align=center;verticalAlign=top;fontSize=6;spacingLeft=2;fontColor=#ffffff;spacingTop=-2;whiteSpace=wrap;spacingRight=12;resizeWidth=1;sketch=0;hachureGap=4;pointerEvents=0;fontFamily=Verdana;" vertex="1" parent="Oq57M_BDFYK8j7h-nGXd-30">
          <mxGeometry x="0.35" width="60.35" height="20" relative="1" as="geometry">
            <mxPoint x="46" y="50" as="offset" />
          </mxGeometry>
        </mxCell>
        <mxCell id="Oq57M_BDFYK8j7h-nGXd-114" value="Wann endete deine Dienstreise?" style="html=1;strokeWidth=1;shadow=0;dashed=0;shape=mxgraph.ios7ui.callout;strokeColor=none;fillColor=#E7E6EC;align=left;verticalAlign=middle;fontSize=6;spacingLeft=17;fontColor=#000000;spacingTop=0;whiteSpace=wrap;resizeWidth=1;sketch=0;hachureGap=4;pointerEvents=0;fontFamily=Verdana;" vertex="1" parent="Oq57M_BDFYK8j7h-nGXd-30">
          <mxGeometry y="76" width="88" height="30" as="geometry" />
        </mxCell>
        <mxCell id="Oq57M_BDFYK8j7h-nGXd-35" value="A dialog text that notifies you of something of which you don&#39;t need to make a decision, just to acknowledge it by pressing the close button." style="shape=rect;rounded=1;strokeColor=none;fillColor=#F6F6F8;gradientColor=none;shadow=0;glass=0;dashed=1;fontFamily=Helvetica;fontSize=7;fontColor=#333333;align=center;html=1;verticalAlign=top;whiteSpace=wrap;spacing=8;spacingTop=0;" vertex="1" parent="1">
          <mxGeometry x="2220" y="630" width="120" height="70" as="geometry" />
        </mxCell>
        <mxCell id="Oq57M_BDFYK8j7h-nGXd-36" value="Close" style="shape=text;align=center;verticalAlign=middle;fontSize=8;fontColor=#0680FF;strokeColor=none;fillColor=none;spacingTop=3;resizeWidth=1;whiteSpace=wrap;html=1;" vertex="1" parent="Oq57M_BDFYK8j7h-nGXd-35">
          <mxGeometry y="1" width="120" height="20" relative="1" as="geometry">
            <mxPoint y="-20" as="offset" />
          </mxGeometry>
        </mxCell>
        <mxCell id="Oq57M_BDFYK8j7h-nGXd-37" value="" style="shape=rect;strokeColor=none;fillColor=default;gradientColor=none;shadow=0;sketch=0;hachureGap=4;pointerEvents=0;fontFamily=Architects Daughter;fontSource=https%3A%2F%2Ffonts.googleapis.com%2Fcss%3Ffamily%3DArchitects%2BDaughter;fontSize=20;" vertex="1" parent="1">
          <mxGeometry x="18.5" y="116" width="164" height="25" as="geometry" />
        </mxCell>
        <mxCell id="Oq57M_BDFYK8j7h-nGXd-38" value="März 2024" style="shape=ellipse;strokeColor=none;fillColor=#B3B3B3;fontSize=8;fontColor=#000000;align=left;spacingTop=1;spacingLeft=2;labelPosition=right;verticalLabelPosition=middle;verticalAlign=middle;sketch=0;hachureGap=4;pointerEvents=0;fontFamily=Verdana;html=1;" vertex="1" parent="Oq57M_BDFYK8j7h-nGXd-37">
          <mxGeometry width="10" height="10" relative="1" as="geometry">
            <mxPoint x="5" y="5" as="offset" />
          </mxGeometry>
        </mxCell>
        <mxCell id="Oq57M_BDFYK8j7h-nGXd-39" value="" style="shape=mxgraph.ios7.misc.right;strokeColor=#666666;labelPosition=left;verticalLabelPosition=middle;align=right;verticalAlign=middle;fontSize=8;spacingRight=4;fontColor=#999999;sketch=0;hachureGap=4;pointerEvents=0;fontFamily=Verdana;html=1;" vertex="1" parent="Oq57M_BDFYK8j7h-nGXd-37">
          <mxGeometry x="1" width="5" height="10" relative="1" as="geometry">
            <mxPoint x="-15" y="5" as="offset" />
          </mxGeometry>
        </mxCell>
        <mxCell id="Oq57M_BDFYK8j7h-nGXd-41" value="Information - 223€" style="shape=text;strokeColor=none;align=left;verticalAlign=middle;fontSize=5;spacingLeft=17;fontColor=#808080;spacingTop=0;sketch=0;hachureGap=4;pointerEvents=0;fontFamily=Verdana;html=1;whiteSpace=wrap;spacingBottom=2;fillColor=none;" vertex="1" parent="Oq57M_BDFYK8j7h-nGXd-37">
          <mxGeometry width="164" height="10" relative="1" as="geometry">
            <mxPoint y="15" as="offset" />
          </mxGeometry>
        </mxCell>
        <mxCell id="Oq57M_BDFYK8j7h-nGXd-42" value="" style="shape=rect;strokeColor=none;fillColor=default;gradientColor=none;shadow=0;sketch=0;hachureGap=4;pointerEvents=0;fontFamily=Architects Daughter;fontSource=https%3A%2F%2Ffonts.googleapis.com%2Fcss%3Ffamily%3DArchitects%2BDaughter;fontSize=20;" vertex="1" parent="1">
          <mxGeometry x="18" y="141" width="164" height="25" as="geometry" />
        </mxCell>
        <mxCell id="Oq57M_BDFYK8j7h-nGXd-43" value="Februar 2024" style="shape=ellipse;strokeColor=none;fillColor=#FFFF00;fontSize=8;fontColor=#000000;align=left;spacingTop=1;spacingLeft=2;labelPosition=right;verticalLabelPosition=middle;verticalAlign=middle;sketch=0;hachureGap=4;pointerEvents=0;fontFamily=Verdana;html=1;" vertex="1" parent="Oq57M_BDFYK8j7h-nGXd-42">
          <mxGeometry width="10" height="10" relative="1" as="geometry">
            <mxPoint x="5" y="5" as="offset" />
          </mxGeometry>
        </mxCell>
        <mxCell id="Oq57M_BDFYK8j7h-nGXd-44" value="" style="shape=mxgraph.ios7.misc.right;strokeColor=#666666;labelPosition=left;verticalLabelPosition=middle;align=right;verticalAlign=middle;fontSize=8;spacingRight=4;fontColor=#999999;sketch=0;hachureGap=4;pointerEvents=0;fontFamily=Verdana;html=1;" vertex="1" parent="Oq57M_BDFYK8j7h-nGXd-42">
          <mxGeometry x="1" width="5" height="10" relative="1" as="geometry">
            <mxPoint x="-15" y="5" as="offset" />
          </mxGeometry>
        </mxCell>
        <mxCell id="Oq57M_BDFYK8j7h-nGXd-45" value="Information - 56€" style="shape=text;strokeColor=none;align=left;verticalAlign=middle;fontSize=5;spacingLeft=17;fontColor=#808080;spacingTop=0;sketch=0;hachureGap=4;pointerEvents=0;fontFamily=Verdana;html=1;whiteSpace=wrap;spacingBottom=2;fillColor=none;" vertex="1" parent="Oq57M_BDFYK8j7h-nGXd-42">
          <mxGeometry width="164" height="10" relative="1" as="geometry">
            <mxPoint y="15" as="offset" />
          </mxGeometry>
        </mxCell>
        <mxCell id="Oq57M_BDFYK8j7h-nGXd-46" value="" style="shape=rect;strokeColor=none;fillColor=default;gradientColor=none;shadow=0;sketch=0;hachureGap=4;pointerEvents=0;fontFamily=Architects Daughter;fontSource=https%3A%2F%2Ffonts.googleapis.com%2Fcss%3Ffamily%3DArchitects%2BDaughter;fontSize=20;fontStyle=1" vertex="1" parent="1">
          <mxGeometry x="18.5" y="166" width="164" height="25" as="geometry" />
        </mxCell>
        <mxCell id="Oq57M_BDFYK8j7h-nGXd-47" value="Januar 2024" style="shape=ellipse;strokeColor=none;fillColor=#FF0000;fontSize=8;fontColor=#000000;align=left;spacingTop=1;spacingLeft=2;labelPosition=right;verticalLabelPosition=middle;verticalAlign=middle;sketch=0;hachureGap=4;pointerEvents=0;fontFamily=Verdana;html=1;" vertex="1" parent="Oq57M_BDFYK8j7h-nGXd-46">
          <mxGeometry width="10" height="10" relative="1" as="geometry">
            <mxPoint x="5" y="5" as="offset" />
          </mxGeometry>
        </mxCell>
        <mxCell id="Oq57M_BDFYK8j7h-nGXd-48" value="" style="shape=mxgraph.ios7.misc.right;strokeColor=#666666;labelPosition=left;verticalLabelPosition=middle;align=right;verticalAlign=middle;fontSize=8;spacingRight=4;fontColor=#999999;sketch=0;hachureGap=4;pointerEvents=0;fontFamily=Verdana;html=1;" vertex="1" parent="Oq57M_BDFYK8j7h-nGXd-46">
          <mxGeometry x="1" width="5" height="10" relative="1" as="geometry">
            <mxPoint x="-15" y="5" as="offset" />
          </mxGeometry>
        </mxCell>
        <mxCell id="Oq57M_BDFYK8j7h-nGXd-49" value="Information - 32€" style="shape=text;strokeColor=none;align=left;verticalAlign=middle;fontSize=5;spacingLeft=17;fontColor=#808080;spacingTop=0;sketch=0;hachureGap=4;pointerEvents=0;fontFamily=Verdana;html=1;whiteSpace=wrap;spacingBottom=2;fillColor=none;" vertex="1" parent="Oq57M_BDFYK8j7h-nGXd-46">
          <mxGeometry width="164" height="10" relative="1" as="geometry">
            <mxPoint y="15" as="offset" />
          </mxGeometry>
        </mxCell>
        <mxCell id="Oq57M_BDFYK8j7h-nGXd-50" value="" style="shape=rect;strokeColor=none;fillColor=default;gradientColor=none;shadow=0;sketch=0;hachureGap=4;pointerEvents=0;fontFamily=Architects Daughter;fontSource=https%3A%2F%2Ffonts.googleapis.com%2Fcss%3Ffamily%3DArchitects%2BDaughter;fontSize=20;" vertex="1" parent="1">
          <mxGeometry x="18" y="191" width="164" height="25" as="geometry" />
        </mxCell>
        <mxCell id="Oq57M_BDFYK8j7h-nGXd-51" value="Dezember 2023" style="shape=ellipse;strokeColor=none;fillColor=#00CC00;fontSize=8;fontColor=#000000;align=left;spacingTop=1;spacingLeft=2;labelPosition=right;verticalLabelPosition=middle;verticalAlign=middle;sketch=0;hachureGap=4;pointerEvents=0;fontFamily=Verdana;html=1;" vertex="1" parent="Oq57M_BDFYK8j7h-nGXd-50">
          <mxGeometry width="10" height="10" relative="1" as="geometry">
            <mxPoint x="5" y="5" as="offset" />
          </mxGeometry>
        </mxCell>
        <mxCell id="Oq57M_BDFYK8j7h-nGXd-52" value="" style="shape=mxgraph.ios7.misc.right;strokeColor=#666666;labelPosition=left;verticalLabelPosition=middle;align=right;verticalAlign=middle;fontSize=8;spacingRight=4;fontColor=#999999;sketch=0;hachureGap=4;pointerEvents=0;fontFamily=Verdana;html=1;" vertex="1" parent="Oq57M_BDFYK8j7h-nGXd-50">
          <mxGeometry x="1" width="5" height="10" relative="1" as="geometry">
            <mxPoint x="-15" y="5" as="offset" />
          </mxGeometry>
        </mxCell>
        <mxCell id="Oq57M_BDFYK8j7h-nGXd-53" value="Information - 12€" style="shape=text;strokeColor=none;align=left;verticalAlign=middle;fontSize=5;spacingLeft=17;fontColor=#808080;spacingTop=0;sketch=0;hachureGap=4;pointerEvents=0;fontFamily=Verdana;html=1;whiteSpace=wrap;spacingBottom=2;fillColor=none;" vertex="1" parent="Oq57M_BDFYK8j7h-nGXd-50">
          <mxGeometry width="164" height="10" relative="1" as="geometry">
            <mxPoint y="15" as="offset" />
          </mxGeometry>
        </mxCell>
        <mxCell id="Oq57M_BDFYK8j7h-nGXd-58" value="" style="shape=rect;strokeColor=none;fillColor=default;gradientColor=none;shadow=0;sketch=0;hachureGap=4;pointerEvents=0;fontFamily=Architects Daughter;fontSource=https%3A%2F%2Ffonts.googleapis.com%2Fcss%3Ffamily%3DArchitects%2BDaughter;fontSize=20;" vertex="1" parent="1">
          <mxGeometry x="18.5" y="216" width="164" height="25" as="geometry" />
        </mxCell>
        <mxCell id="Oq57M_BDFYK8j7h-nGXd-59" value="November 2023" style="shape=ellipse;strokeColor=none;fillColor=#00CC00;fontSize=8;fontColor=#000000;align=left;spacingTop=1;spacingLeft=2;labelPosition=right;verticalLabelPosition=middle;verticalAlign=middle;sketch=0;hachureGap=4;pointerEvents=0;fontFamily=Verdana;html=1;" vertex="1" parent="Oq57M_BDFYK8j7h-nGXd-58">
          <mxGeometry width="10" height="10" relative="1" as="geometry">
            <mxPoint x="5" y="5" as="offset" />
          </mxGeometry>
        </mxCell>
        <mxCell id="Oq57M_BDFYK8j7h-nGXd-60" value="" style="shape=mxgraph.ios7.misc.right;strokeColor=#666666;labelPosition=left;verticalLabelPosition=middle;align=right;verticalAlign=middle;fontSize=8;spacingRight=4;fontColor=#999999;sketch=0;hachureGap=4;pointerEvents=0;fontFamily=Verdana;html=1;" vertex="1" parent="Oq57M_BDFYK8j7h-nGXd-58">
          <mxGeometry x="1" width="5" height="10" relative="1" as="geometry">
            <mxPoint x="-15" y="5" as="offset" />
          </mxGeometry>
        </mxCell>
        <mxCell id="Oq57M_BDFYK8j7h-nGXd-61" value="Information - 102€" style="shape=text;strokeColor=none;align=left;verticalAlign=middle;fontSize=5;spacingLeft=17;fontColor=#808080;spacingTop=0;sketch=0;hachureGap=4;pointerEvents=0;fontFamily=Verdana;html=1;whiteSpace=wrap;spacingBottom=2;fillColor=none;" vertex="1" parent="Oq57M_BDFYK8j7h-nGXd-58">
          <mxGeometry width="164" height="10" relative="1" as="geometry">
            <mxPoint y="15" as="offset" />
          </mxGeometry>
        </mxCell>
        <mxCell id="Oq57M_BDFYK8j7h-nGXd-63" value="" style="shape=rect;strokeColor=none;fillColor=default;gradientColor=none;shadow=0;sketch=0;hachureGap=4;pointerEvents=0;fontFamily=Architects Daughter;fontSource=https%3A%2F%2Ffonts.googleapis.com%2Fcss%3Ffamily%3DArchitects%2BDaughter;fontSize=20;" vertex="1" parent="1">
          <mxGeometry x="18.5" y="241" width="164" height="25" as="geometry" />
        </mxCell>
        <mxCell id="Oq57M_BDFYK8j7h-nGXd-64" value="September 2023" style="shape=ellipse;strokeColor=none;fillColor=#00CC00;fontSize=8;fontColor=#000000;align=left;spacingTop=1;spacingLeft=2;labelPosition=right;verticalLabelPosition=middle;verticalAlign=middle;sketch=0;hachureGap=4;pointerEvents=0;fontFamily=Verdana;html=1;" vertex="1" parent="Oq57M_BDFYK8j7h-nGXd-63">
          <mxGeometry width="10" height="10" relative="1" as="geometry">
            <mxPoint x="5" y="5" as="offset" />
          </mxGeometry>
        </mxCell>
        <mxCell id="Oq57M_BDFYK8j7h-nGXd-65" value="" style="shape=mxgraph.ios7.misc.right;strokeColor=#666666;labelPosition=left;verticalLabelPosition=middle;align=right;verticalAlign=middle;fontSize=8;spacingRight=4;fontColor=#999999;sketch=0;hachureGap=4;pointerEvents=0;fontFamily=Verdana;html=1;" vertex="1" parent="Oq57M_BDFYK8j7h-nGXd-63">
          <mxGeometry x="1" width="5" height="10" relative="1" as="geometry">
            <mxPoint x="-15" y="5" as="offset" />
          </mxGeometry>
        </mxCell>
        <mxCell id="Oq57M_BDFYK8j7h-nGXd-66" value="Information - 318€" style="shape=text;strokeColor=none;align=left;verticalAlign=middle;fontSize=5;spacingLeft=17;fontColor=#808080;spacingTop=0;sketch=0;hachureGap=4;pointerEvents=0;fontFamily=Verdana;html=1;whiteSpace=wrap;spacingBottom=2;fillColor=none;" vertex="1" parent="Oq57M_BDFYK8j7h-nGXd-63">
          <mxGeometry width="164" height="10" relative="1" as="geometry">
            <mxPoint y="15" as="offset" />
          </mxGeometry>
        </mxCell>
        <mxCell id="Oq57M_BDFYK8j7h-nGXd-67" value="" style="shape=rect;strokeColor=none;fillColor=default;gradientColor=none;shadow=0;sketch=0;hachureGap=4;pointerEvents=0;fontFamily=Architects Daughter;fontSource=https%3A%2F%2Ffonts.googleapis.com%2Fcss%3Ffamily%3DArchitects%2BDaughter;fontSize=20;" vertex="1" parent="1">
          <mxGeometry x="18.5" y="266" width="164" height="25" as="geometry" />
        </mxCell>
        <mxCell id="Oq57M_BDFYK8j7h-nGXd-68" value="Juni 2023" style="shape=ellipse;strokeColor=none;fillColor=#00CC00;fontSize=8;fontColor=#000000;align=left;spacingTop=1;spacingLeft=2;labelPosition=right;verticalLabelPosition=middle;verticalAlign=middle;sketch=0;hachureGap=4;pointerEvents=0;fontFamily=Verdana;html=1;" vertex="1" parent="Oq57M_BDFYK8j7h-nGXd-67">
          <mxGeometry width="10" height="10" relative="1" as="geometry">
            <mxPoint x="5" y="5" as="offset" />
          </mxGeometry>
        </mxCell>
        <mxCell id="Oq57M_BDFYK8j7h-nGXd-69" value="" style="shape=mxgraph.ios7.misc.right;strokeColor=#666666;labelPosition=left;verticalLabelPosition=middle;align=right;verticalAlign=middle;fontSize=8;spacingRight=4;fontColor=#999999;sketch=0;hachureGap=4;pointerEvents=0;fontFamily=Verdana;html=1;" vertex="1" parent="Oq57M_BDFYK8j7h-nGXd-67">
          <mxGeometry x="1" width="5" height="10" relative="1" as="geometry">
            <mxPoint x="-15" y="5" as="offset" />
          </mxGeometry>
        </mxCell>
        <mxCell id="Oq57M_BDFYK8j7h-nGXd-70" value="Information - 187€" style="shape=text;strokeColor=none;align=left;verticalAlign=middle;fontSize=5;spacingLeft=17;fontColor=#808080;spacingTop=0;sketch=0;hachureGap=4;pointerEvents=0;fontFamily=Verdana;html=1;whiteSpace=wrap;spacingBottom=2;fillColor=none;" vertex="1" parent="Oq57M_BDFYK8j7h-nGXd-67">
          <mxGeometry width="164" height="10" relative="1" as="geometry">
            <mxPoint y="15" as="offset" />
          </mxGeometry>
        </mxCell>
        <mxCell id="Oq57M_BDFYK8j7h-nGXd-71" value="" style="shape=rect;strokeColor=none;fillColor=default;gradientColor=none;shadow=0;sketch=0;hachureGap=4;pointerEvents=0;fontFamily=Architects Daughter;fontSource=https%3A%2F%2Ffonts.googleapis.com%2Fcss%3Ffamily%3DArchitects%2BDaughter;fontSize=20;" vertex="1" parent="1">
          <mxGeometry x="19" y="291" width="164" height="25" as="geometry" />
        </mxCell>
        <mxCell id="Oq57M_BDFYK8j7h-nGXd-72" value="Mai 2023" style="shape=ellipse;strokeColor=none;fillColor=#00CC00;fontSize=8;fontColor=#000000;align=left;spacingTop=1;spacingLeft=2;labelPosition=right;verticalLabelPosition=middle;verticalAlign=middle;sketch=0;hachureGap=4;pointerEvents=0;fontFamily=Verdana;html=1;" vertex="1" parent="Oq57M_BDFYK8j7h-nGXd-71">
          <mxGeometry width="10" height="10" relative="1" as="geometry">
            <mxPoint x="5" y="5" as="offset" />
          </mxGeometry>
        </mxCell>
        <mxCell id="Oq57M_BDFYK8j7h-nGXd-73" value="" style="shape=mxgraph.ios7.misc.right;strokeColor=#666666;labelPosition=left;verticalLabelPosition=middle;align=right;verticalAlign=middle;fontSize=8;spacingRight=4;fontColor=#999999;sketch=0;hachureGap=4;pointerEvents=0;fontFamily=Verdana;html=1;" vertex="1" parent="Oq57M_BDFYK8j7h-nGXd-71">
          <mxGeometry x="1" width="5" height="10" relative="1" as="geometry">
            <mxPoint x="-15" y="5" as="offset" />
          </mxGeometry>
        </mxCell>
        <mxCell id="Oq57M_BDFYK8j7h-nGXd-74" value="Information - 26€" style="shape=text;strokeColor=none;align=left;verticalAlign=middle;fontSize=5;spacingLeft=17;fontColor=#808080;spacingTop=0;sketch=0;hachureGap=4;pointerEvents=0;fontFamily=Verdana;html=1;whiteSpace=wrap;spacingBottom=2;fillColor=none;" vertex="1" parent="Oq57M_BDFYK8j7h-nGXd-71">
          <mxGeometry width="164" height="10" relative="1" as="geometry">
            <mxPoint y="15" as="offset" />
          </mxGeometry>
        </mxCell>
        <mxCell id="Oq57M_BDFYK8j7h-nGXd-75" value="" style="html=1;verticalLabelPosition=bottom;labelBackgroundColor=#ffffff;verticalAlign=top;shadow=0;dashed=0;strokeWidth=2;shape=mxgraph.ios7.misc.scroll_(vertical);fillColor=#a0a0a0;" vertex="1" parent="1">
          <mxGeometry x="183" y="100" width="3.5" height="80" as="geometry" />
        </mxCell>
        <mxCell id="Oq57M_BDFYK8j7h-nGXd-62" value="" style="html=1;verticalLabelPosition=bottom;labelBackgroundColor=#ffffff;verticalAlign=top;shadow=0;dashed=0;strokeWidth=2;shape=mxgraph.ios7.misc.add;fillColor=#007FFF;strokeColor=#ffffff;sketch=0;" vertex="1" parent="1">
          <mxGeometry x="157" y="310" width="22" height="22" as="geometry" />
        </mxCell>
        <mxCell id="Oq57M_BDFYK8j7h-nGXd-76" value="Icon" style="html=1;strokeWidth=1;shadow=0;dashed=0;shape=mxgraph.ios7ui.icon;fontSize=8;fontColor=#ffffff;buttonText=;whiteSpace=wrap;align=center;" vertex="1" parent="1">
          <mxGeometry x="19" y="84" width="16" height="16" as="geometry" />
        </mxCell>
        <mxCell id="Oq57M_BDFYK8j7h-nGXd-77" value="Right-aligned menu" style="html=1;shadow=0;dashed=0;shape=mxgraph.bootstrap.rrect;rSize=5;strokeColor=none;strokeWidth=1;fillColor=#6C767D;fontColor=#ffffff;whiteSpace=wrap;align=left;verticalAlign=middle;fontStyle=0;fontSize=14;spacingLeft=10;" vertex="1" parent="1">
          <mxGeometry x="2155" y="662" width="155" height="40" as="geometry" />
        </mxCell>
        <mxCell id="Oq57M_BDFYK8j7h-nGXd-78" value="" style="shape=triangle;direction=south;fillColor=#ffffff;strokeColor=none;perimeter=none;" vertex="1" parent="Oq57M_BDFYK8j7h-nGXd-77">
          <mxGeometry x="1" y="0.5" width="10" height="5" relative="1" as="geometry">
            <mxPoint x="-17" y="-2.5" as="offset" />
          </mxGeometry>
        </mxCell>
        <mxCell id="Oq57M_BDFYK8j7h-nGXd-79" value="" style="html=1;shadow=0;dashed=0;shape=mxgraph.bootstrap.rrect;rSize=5;fillColor=#ffffff;strokeColor=#999999;" vertex="1" parent="1">
          <mxGeometry x="2140" y="705" width="170" height="110" as="geometry" />
        </mxCell>
        <mxCell id="Oq57M_BDFYK8j7h-nGXd-80" value="Action" style="fillColor=none;strokeColor=none;align=left;spacing=20;fontSize=14;" vertex="1" parent="Oq57M_BDFYK8j7h-nGXd-79">
          <mxGeometry width="170" height="30" relative="1" as="geometry">
            <mxPoint y="10" as="offset" />
          </mxGeometry>
        </mxCell>
        <mxCell id="Oq57M_BDFYK8j7h-nGXd-81" value="Another action" style="fillColor=none;strokeColor=none;align=left;spacing=20;fontSize=14;" vertex="1" parent="Oq57M_BDFYK8j7h-nGXd-79">
          <mxGeometry width="170" height="30" relative="1" as="geometry">
            <mxPoint y="40" as="offset" />
          </mxGeometry>
        </mxCell>
        <mxCell id="Oq57M_BDFYK8j7h-nGXd-82" value="Something else here" style="fillColor=none;strokeColor=none;align=left;spacing=20;fontSize=14;" vertex="1" parent="Oq57M_BDFYK8j7h-nGXd-79">
          <mxGeometry width="170" height="30" relative="1" as="geometry">
            <mxPoint y="70" as="offset" />
          </mxGeometry>
        </mxCell>
        <mxCell id="Oq57M_BDFYK8j7h-nGXd-86" value="" style="perimeter=none;dashed=0;shape=rect;fillColor=#ffffff;strokeColor=#eeeeee;shadow=1;" vertex="1" parent="1">
          <mxGeometry x="2210" y="834" width="170" height="272" as="geometry" />
        </mxCell>
        <mxCell id="Oq57M_BDFYK8j7h-nGXd-87" value="Preview" style="perimeter=none;dashed=0;shape=mxgraph.gmdl.preview;verticalAlign=middle;align=left;labelPosition=right;fontSize=15;spacing=16;resizeWidth=1;strokeColor=none;fillColor=#747474;html=1;" vertex="1" parent="Oq57M_BDFYK8j7h-nGXd-86">
          <mxGeometry width="16" height="12" relative="1" as="geometry">
            <mxPoint x="17" y="16" as="offset" />
          </mxGeometry>
        </mxCell>
        <mxCell id="Oq57M_BDFYK8j7h-nGXd-88" value="Share" style="perimeter=none;dashed=0;shape=mxgraph.gmdl.share3;verticalAlign=middle;align=left;labelPosition=right;fontSize=15;spacing=16;resizeWidth=1;strokeColor=none;fillColor=#747474;html=1;" vertex="1" parent="Oq57M_BDFYK8j7h-nGXd-86">
          <mxGeometry width="18" height="14" relative="1" as="geometry">
            <mxPoint x="16" y="57" as="offset" />
          </mxGeometry>
        </mxCell>
        <mxCell id="Oq57M_BDFYK8j7h-nGXd-89" value="Get link" style="perimeter=none;dashed=0;shape=mxgraph.gmdl.link;verticalAlign=middle;align=left;labelPosition=right;fontSize=15;spacing=16;resizeWidth=1;strokeColor=none;fillColor=#747474;html=1;" vertex="1" parent="Oq57M_BDFYK8j7h-nGXd-86">
          <mxGeometry width="18" height="10" relative="1" as="geometry">
            <mxPoint x="16" y="101" as="offset" />
          </mxGeometry>
        </mxCell>
        <mxCell id="Oq57M_BDFYK8j7h-nGXd-90" value="" style="shape=line;resizeWidth=1;perimeter=none;strokeColor=#eeeeee;" vertex="1" parent="Oq57M_BDFYK8j7h-nGXd-86">
          <mxGeometry width="170" height="10" relative="1" as="geometry">
            <mxPoint y="126" as="offset" />
          </mxGeometry>
        </mxCell>
        <mxCell id="Oq57M_BDFYK8j7h-nGXd-91" value="Make a copy" style="perimeter=none;dashed=0;shape=mxgraph.gmdl.copy;verticalAlign=middle;align=left;labelPosition=right;strokeWidth=2;fontSize=15;spacing=16;resizeWidth=1;strokeColor=#747474;fillColor=none;html=1;" vertex="1" parent="Oq57M_BDFYK8j7h-nGXd-86">
          <mxGeometry width="12" height="16" relative="1" as="geometry">
            <mxPoint x="20" y="150" as="offset" />
          </mxGeometry>
        </mxCell>
        <mxCell id="Oq57M_BDFYK8j7h-nGXd-92" value="Download" style="perimeter=none;dashed=0;shape=mxgraph.gmdl.download;verticalAlign=middle;align=left;labelPosition=right;fontSize=15;spacing=16;resizeWidth=1;strokeColor=none;fillColor=#747474;html=1;" vertex="1" parent="Oq57M_BDFYK8j7h-nGXd-86">
          <mxGeometry width="12" height="16" relative="1" as="geometry">
            <mxPoint x="20" y="192" as="offset" />
          </mxGeometry>
        </mxCell>
        <mxCell id="Oq57M_BDFYK8j7h-nGXd-93" value="" style="shape=line;resizeWidth=1;perimeter=none;strokeColor=#eeeeee;" vertex="1" parent="Oq57M_BDFYK8j7h-nGXd-86">
          <mxGeometry width="170" height="10" relative="1" as="geometry">
            <mxPoint y="220" as="offset" />
          </mxGeometry>
        </mxCell>
        <mxCell id="Oq57M_BDFYK8j7h-nGXd-94" value="Remove" style="perimeter=none;dashed=0;shape=mxgraph.gmdl.remove;verticalAlign=middle;align=left;labelPosition=right;fontSize=15;spacing=16;resizeWidth=1;strokeColor=none;fillColor=#747474;html=1;" vertex="1" parent="Oq57M_BDFYK8j7h-nGXd-86">
          <mxGeometry width="12" height="16" relative="1" as="geometry">
            <mxPoint x="20" y="242" as="offset" />
          </mxGeometry>
        </mxCell>
        <mxCell id="Oq57M_BDFYK8j7h-nGXd-99" value="" style="endArrow=none;html=1;rounded=0;" edge="1" parent="1">
          <mxGeometry width="50" height="50" relative="1" as="geometry">
            <mxPoint x="163" y="96.89999999999999" as="sourcePoint" />
            <mxPoint x="173" y="96.89999999999999" as="targetPoint" />
          </mxGeometry>
        </mxCell>
        <mxCell id="Oq57M_BDFYK8j7h-nGXd-100" value="" style="endArrow=none;html=1;rounded=0;" edge="1" parent="1">
          <mxGeometry width="50" height="50" relative="1" as="geometry">
            <mxPoint x="163" y="91.77999999999999" as="sourcePoint" />
            <mxPoint x="173" y="91.77999999999999" as="targetPoint" />
          </mxGeometry>
        </mxCell>
        <mxCell id="Oq57M_BDFYK8j7h-nGXd-101" value="" style="endArrow=none;html=1;rounded=0;" edge="1" parent="1">
          <mxGeometry width="50" height="50" relative="1" as="geometry">
            <mxPoint x="163" y="86.9" as="sourcePoint" />
            <mxPoint x="173" y="86.9" as="targetPoint" />
          </mxGeometry>
        </mxCell>
        <mxCell id="Oq57M_BDFYK8j7h-nGXd-102" value="Icon" style="html=1;strokeWidth=1;shadow=0;dashed=0;shape=mxgraph.ios7ui.icon;fontSize=8;fontColor=#ffffff;buttonText=;whiteSpace=wrap;align=center;" vertex="1" parent="1">
          <mxGeometry x="258" y="84" width="16" height="16" as="geometry" />
        </mxCell>
        <mxCell id="Oq57M_BDFYK8j7h-nGXd-106" value="" style="endArrow=none;html=1;rounded=0;" edge="1" parent="1">
          <mxGeometry width="50" height="50" relative="1" as="geometry">
            <mxPoint x="404" y="96.88" as="sourcePoint" />
            <mxPoint x="414" y="96.88" as="targetPoint" />
          </mxGeometry>
        </mxCell>
        <mxCell id="Oq57M_BDFYK8j7h-nGXd-107" value="" style="endArrow=none;html=1;rounded=0;" edge="1" parent="1">
          <mxGeometry width="50" height="50" relative="1" as="geometry">
            <mxPoint x="404" y="91.75999999999999" as="sourcePoint" />
            <mxPoint x="414" y="91.75999999999999" as="targetPoint" />
          </mxGeometry>
        </mxCell>
        <mxCell id="Oq57M_BDFYK8j7h-nGXd-108" value="" style="endArrow=none;html=1;rounded=0;" edge="1" parent="1">
          <mxGeometry width="50" height="50" relative="1" as="geometry">
            <mxPoint x="404" y="86.88000000000001" as="sourcePoint" />
            <mxPoint x="414" y="86.88000000000001" as="targetPoint" />
          </mxGeometry>
        </mxCell>
        <mxCell id="Oq57M_BDFYK8j7h-nGXd-109" value="" style="html=1;verticalLabelPosition=bottom;labelBackgroundColor=#ffffff;verticalAlign=top;shadow=0;dashed=0;strokeWidth=2;shape=mxgraph.ios7.misc.scroll_(vertical);fillColor=#a0a0a0;" vertex="1" parent="1">
          <mxGeometry x="423.5" y="100" width="3.5" height="80" as="geometry" />
        </mxCell>
        <mxCell id="Oq57M_BDFYK8j7h-nGXd-115" value="" style="html=1;verticalLabelPosition=bottom;labelBackgroundColor=#ffffff;verticalAlign=top;shadow=0;dashed=0;strokeWidth=1;shape=mxgraph.ios7.misc.iphone;strokeColor=#c0c0c0;" vertex="1" parent="1">
          <mxGeometry x="481" width="201" height="400" as="geometry" />
        </mxCell>
        <mxCell id="Oq57M_BDFYK8j7h-nGXd-116" value="" style="html=1;strokeWidth=1;shadow=0;dashed=0;shape=mxgraph.ios7ui.appBar;fillColor=#ffffff;gradientColor=none;sketch=0;hachureGap=4;pointerEvents=0;" vertex="1" parent="1">
          <mxGeometry x="494" y="60.99999999999997" width="175" height="15" as="geometry" />
        </mxCell>
        <mxCell id="Oq57M_BDFYK8j7h-nGXd-117" value="CARRIER" style="shape=rect;sketch=0;align=left;fontSize=8;spacingLeft=24;fontSize=4;fontColor=#aaaaaa;strokeColor=none;fillColor=none;spacingTop=4;hachureGap=4;pointerEvents=0;html=1;" vertex="1" parent="Oq57M_BDFYK8j7h-nGXd-116">
          <mxGeometry y="0.5" width="50" height="13" relative="1" as="geometry">
            <mxPoint y="-6.5" as="offset" />
          </mxGeometry>
        </mxCell>
        <mxCell id="Oq57M_BDFYK8j7h-nGXd-118" value="11:55PM" style="shape=rect;sketch=0;fontSize=8;fontColor=#aaaaaa;strokeColor=none;fillColor=none;spacingTop=4;hachureGap=4;pointerEvents=0;html=1;" vertex="1" parent="Oq57M_BDFYK8j7h-nGXd-116">
          <mxGeometry x="0.5" y="0.5" width="50" height="13" relative="1" as="geometry">
            <mxPoint x="-30" y="-6.5" as="offset" />
          </mxGeometry>
        </mxCell>
        <mxCell id="Oq57M_BDFYK8j7h-nGXd-119" value="98%" style="shape=rect;align=right;fontSize=8;spacingRight=19;fontSize=6;fontColor=#aaaaaa;strokeColor=none;fillColor=none;spacingTop=4;sketch=0;hachureGap=4;pointerEvents=0;html=1;" vertex="1" parent="Oq57M_BDFYK8j7h-nGXd-116">
          <mxGeometry x="1" y="0.5" width="45" height="13" relative="1" as="geometry">
            <mxPoint x="-46" y="-8" as="offset" />
          </mxGeometry>
        </mxCell>
        <mxCell id="Oq57M_BDFYK8j7h-nGXd-120" value="" style="shape=rect;fillColor=#F7F7F7;strokeColor=none;" vertex="1" parent="1">
          <mxGeometry x="494" y="320" width="175" height="20" as="geometry" />
        </mxCell>
        <mxCell id="Oq57M_BDFYK8j7h-nGXd-122" value="" style="strokeWidth=1;strokeColor=#F7F7F7;fillColor=#666666;shape=mxgraph.ios7.icons.camera;" vertex="1" parent="Oq57M_BDFYK8j7h-nGXd-120">
          <mxGeometry y="0.5" width="15" height="9" relative="1" as="geometry">
            <mxPoint x="80" y="-4" as="offset" />
          </mxGeometry>
        </mxCell>
        <mxCell id="Oq57M_BDFYK8j7h-nGXd-123" value="" style="shape=rect;strokeColor=none;fillColor=#ffffff;gradientColor=none;shadow=0;sketch=1;hachureGap=4;pointerEvents=0;fontFamily=Architects Daughter;fontSource=https%3A%2F%2Ffonts.googleapis.com%2Fcss%3Ffamily%3DArchitects%2BDaughter;fontSize=20;" vertex="1" parent="1">
          <mxGeometry x="499" y="110" width="165" height="210" as="geometry" />
        </mxCell>
        <mxCell id="Oq57M_BDFYK8j7h-nGXd-124" value="März 2024" style="shape=text;align=center;verticalAlign=middle;fontSize=5;fontColor=#999999;strokeColor=none;fillColor=none;spacingTop=0;resizeWidth=1;sketch=0;hachureGap=4;pointerEvents=0;fontFamily=Verdana;whiteSpace=wrap;html=1;" vertex="1" parent="Oq57M_BDFYK8j7h-nGXd-123">
          <mxGeometry width="164" height="10" relative="1" as="geometry">
            <mxPoint as="offset" />
          </mxGeometry>
        </mxCell>
        <mxCell id="Oq57M_BDFYK8j7h-nGXd-125" value="Wie hoch waren die Taxi Kosten?" style="html=1;strokeWidth=1;shadow=0;dashed=0;shape=mxgraph.ios7ui.callout;strokeColor=none;fillColor=#E7E6EC;align=left;verticalAlign=middle;fontSize=6;spacingLeft=17;fontColor=#000000;spacingTop=0;whiteSpace=wrap;resizeWidth=1;sketch=0;hachureGap=4;pointerEvents=0;fontFamily=Verdana;" vertex="1" parent="Oq57M_BDFYK8j7h-nGXd-123">
          <mxGeometry width="100" height="30" relative="1" as="geometry">
            <mxPoint y="15" as="offset" />
          </mxGeometry>
        </mxCell>
        <mxCell id="Oq57M_BDFYK8j7h-nGXd-126" value="&lt;div style=&quot;text-align: justify; line-height: 140%;&quot;&gt;130€&lt;/div&gt;" style="html=1;strokeWidth=1;shadow=0;dashed=0;shape=mxgraph.ios7ui.callout;strokeColor=none;fillColor=#0680FF;flipH=1;align=center;verticalAlign=top;fontSize=6;spacingLeft=2;fontColor=#ffffff;spacingTop=-2;whiteSpace=wrap;spacingRight=12;resizeWidth=1;sketch=0;hachureGap=4;pointerEvents=0;fontFamily=Verdana;" vertex="1" parent="Oq57M_BDFYK8j7h-nGXd-123">
          <mxGeometry x="0.35" width="50.7" height="20" relative="1" as="geometry">
            <mxPoint x="56.65" y="50" as="offset" />
          </mxGeometry>
        </mxCell>
        <mxCell id="Oq57M_BDFYK8j7h-nGXd-127" value="Sende bitte den/die Beleg(e)/Quittung(en) dazu." style="html=1;strokeWidth=1;shadow=0;dashed=0;shape=mxgraph.ios7ui.callout;strokeColor=none;fillColor=#E7E6EC;align=left;verticalAlign=middle;fontSize=6;spacingLeft=17;fontColor=#000000;spacingTop=0;whiteSpace=wrap;resizeWidth=1;sketch=0;hachureGap=4;pointerEvents=0;fontFamily=Verdana;" vertex="1" parent="Oq57M_BDFYK8j7h-nGXd-123">
          <mxGeometry y="75" width="100" height="30" as="geometry" />
        </mxCell>
        <mxCell id="Oq57M_BDFYK8j7h-nGXd-128" value="Icon" style="html=1;strokeWidth=1;shadow=0;dashed=0;shape=mxgraph.ios7ui.icon;fontSize=8;fontColor=#ffffff;buttonText=;whiteSpace=wrap;align=center;" vertex="1" parent="1">
          <mxGeometry x="499" y="84" width="17" height="16" as="geometry" />
        </mxCell>
        <mxCell id="Oq57M_BDFYK8j7h-nGXd-129" value="" style="endArrow=none;html=1;rounded=0;" edge="1" parent="1">
          <mxGeometry width="50" height="50" relative="1" as="geometry">
            <mxPoint x="645" y="96.88" as="sourcePoint" />
            <mxPoint x="655" y="96.88" as="targetPoint" />
          </mxGeometry>
        </mxCell>
        <mxCell id="Oq57M_BDFYK8j7h-nGXd-130" value="" style="endArrow=none;html=1;rounded=0;" edge="1" parent="1">
          <mxGeometry width="50" height="50" relative="1" as="geometry">
            <mxPoint x="645" y="91.75999999999999" as="sourcePoint" />
            <mxPoint x="655" y="91.75999999999999" as="targetPoint" />
          </mxGeometry>
        </mxCell>
        <mxCell id="Oq57M_BDFYK8j7h-nGXd-131" value="" style="endArrow=none;html=1;rounded=0;" edge="1" parent="1">
          <mxGeometry width="50" height="50" relative="1" as="geometry">
            <mxPoint x="645" y="86.88000000000001" as="sourcePoint" />
            <mxPoint x="655" y="86.88000000000001" as="targetPoint" />
          </mxGeometry>
        </mxCell>
        <mxCell id="Oq57M_BDFYK8j7h-nGXd-132" value="" style="html=1;verticalLabelPosition=bottom;labelBackgroundColor=#ffffff;verticalAlign=top;shadow=0;dashed=0;strokeWidth=2;shape=mxgraph.ios7.misc.scroll_(vertical);fillColor=#a0a0a0;" vertex="1" parent="1">
          <mxGeometry x="664.5" y="153" width="4.5" height="80" as="geometry" />
        </mxCell>
        <mxCell id="Oq57M_BDFYK8j7h-nGXd-133" value="" style="html=1;dashed=0;aspect=fixed;verticalLabelPosition=bottom;verticalAlign=top;align=center;shape=mxgraph.gmdl.calendar;strokeColor=none;fillColor=#737373;shadow=0;sketch=0;" vertex="1" parent="1">
          <mxGeometry x="257" y="322" width="15" height="15" as="geometry" />
        </mxCell>
        <mxCell id="Oq57M_BDFYK8j7h-nGXd-136" value="" style="strokeWidth=1;shadow=0;dashed=0;align=center;html=1;shape=mxgraph.mockup.containers.browserWindow;rSize=0;strokeColor=#666666;strokeColor2=#008cff;strokeColor3=#c4c4c4;mainText=,;recursiveResize=0;" vertex="1" parent="1">
          <mxGeometry y="440" width="1920" height="1080" as="geometry" />
        </mxCell>
        <mxCell id="Oq57M_BDFYK8j7h-nGXd-137" value="Page 1" style="strokeWidth=1;shadow=0;dashed=0;align=center;html=1;shape=mxgraph.mockup.containers.anchor;fontSize=17;fontColor=#666666;align=left;whiteSpace=wrap;" vertex="1" parent="Oq57M_BDFYK8j7h-nGXd-136">
          <mxGeometry x="60" y="12" width="110" height="26" as="geometry" />
        </mxCell>
        <mxCell id="Oq57M_BDFYK8j7h-nGXd-138" value="https://www.draw.io" style="strokeWidth=1;shadow=0;dashed=0;align=center;html=1;shape=mxgraph.mockup.containers.anchor;rSize=0;fontSize=17;fontColor=#666666;align=left;" vertex="1" parent="Oq57M_BDFYK8j7h-nGXd-136">
          <mxGeometry x="130" y="60" width="250" height="26" as="geometry" />
        </mxCell>
        <mxCell id="Oq57M_BDFYK8j7h-nGXd-364" value="Table" style="shape=table;startSize=30;container=1;collapsible=0;childLayout=tableLayout;" vertex="1" parent="Oq57M_BDFYK8j7h-nGXd-136">
          <mxGeometry x="50" y="150" width="1740" height="290" as="geometry" />
        </mxCell>
        <mxCell id="Oq57M_BDFYK8j7h-nGXd-365" value="" style="shape=tableRow;horizontal=0;startSize=0;swimlaneHead=0;swimlaneBody=0;strokeColor=inherit;top=0;left=0;bottom=0;right=0;collapsible=0;dropTarget=0;fillColor=none;points=[[0,0.5],[1,0.5]];portConstraint=eastwest;" vertex="1" parent="Oq57M_BDFYK8j7h-nGXd-364">
          <mxGeometry y="30" width="1740" height="52" as="geometry" />
        </mxCell>
        <mxCell id="Oq57M_BDFYK8j7h-nGXd-366" value="" style="shape=partialRectangle;html=1;whiteSpace=wrap;connectable=0;strokeColor=inherit;overflow=hidden;fillColor=none;top=0;left=0;bottom=0;right=0;pointerEvents=1;" vertex="1" parent="Oq57M_BDFYK8j7h-nGXd-365">
          <mxGeometry width="88" height="52" as="geometry">
            <mxRectangle width="88" height="52" as="alternateBounds" />
          </mxGeometry>
        </mxCell>
        <mxCell id="Oq57M_BDFYK8j7h-nGXd-367" value="" style="shape=partialRectangle;html=1;whiteSpace=wrap;connectable=0;strokeColor=inherit;overflow=hidden;fillColor=none;top=0;left=0;bottom=0;right=0;pointerEvents=1;" vertex="1" parent="Oq57M_BDFYK8j7h-nGXd-365">
          <mxGeometry x="88" width="86" height="52" as="geometry">
            <mxRectangle width="86" height="52" as="alternateBounds" />
          </mxGeometry>
        </mxCell>
        <mxCell id="Oq57M_BDFYK8j7h-nGXd-368" value="" style="shape=partialRectangle;html=1;whiteSpace=wrap;connectable=0;strokeColor=inherit;overflow=hidden;fillColor=none;top=0;left=0;bottom=0;right=0;pointerEvents=1;" vertex="1" parent="Oq57M_BDFYK8j7h-nGXd-365">
          <mxGeometry x="174" width="88" height="52" as="geometry">
            <mxRectangle width="88" height="52" as="alternateBounds" />
          </mxGeometry>
        </mxCell>
        <mxCell id="Oq57M_BDFYK8j7h-nGXd-369" value="" style="shape=partialRectangle;html=1;whiteSpace=wrap;connectable=0;strokeColor=inherit;overflow=hidden;fillColor=none;top=0;left=0;bottom=0;right=0;pointerEvents=1;" vertex="1" parent="Oq57M_BDFYK8j7h-nGXd-365">
          <mxGeometry x="262" width="86" height="52" as="geometry">
            <mxRectangle width="86" height="52" as="alternateBounds" />
          </mxGeometry>
        </mxCell>
        <mxCell id="Oq57M_BDFYK8j7h-nGXd-370" value="" style="shape=partialRectangle;html=1;whiteSpace=wrap;connectable=0;strokeColor=inherit;overflow=hidden;fillColor=none;top=0;left=0;bottom=0;right=0;pointerEvents=1;" vertex="1" parent="Oq57M_BDFYK8j7h-nGXd-365">
          <mxGeometry x="348" width="88" height="52" as="geometry">
            <mxRectangle width="88" height="52" as="alternateBounds" />
          </mxGeometry>
        </mxCell>
        <mxCell id="Oq57M_BDFYK8j7h-nGXd-371" value="" style="shape=partialRectangle;html=1;whiteSpace=wrap;connectable=0;strokeColor=inherit;overflow=hidden;fillColor=none;top=0;left=0;bottom=0;right=0;pointerEvents=1;" vertex="1" parent="Oq57M_BDFYK8j7h-nGXd-365">
          <mxGeometry x="436" width="86" height="52" as="geometry">
            <mxRectangle width="86" height="52" as="alternateBounds" />
          </mxGeometry>
        </mxCell>
        <mxCell id="Oq57M_BDFYK8j7h-nGXd-372" value="" style="shape=partialRectangle;html=1;whiteSpace=wrap;connectable=0;strokeColor=inherit;overflow=hidden;fillColor=none;top=0;left=0;bottom=0;right=0;pointerEvents=1;" vertex="1" parent="Oq57M_BDFYK8j7h-nGXd-365">
          <mxGeometry x="522" width="88" height="52" as="geometry">
            <mxRectangle width="88" height="52" as="alternateBounds" />
          </mxGeometry>
        </mxCell>
        <mxCell id="Oq57M_BDFYK8j7h-nGXd-373" value="" style="shape=partialRectangle;html=1;whiteSpace=wrap;connectable=0;strokeColor=inherit;overflow=hidden;fillColor=none;top=0;left=0;bottom=0;right=0;pointerEvents=1;" vertex="1" parent="Oq57M_BDFYK8j7h-nGXd-365">
          <mxGeometry x="610" width="86" height="52" as="geometry">
            <mxRectangle width="86" height="52" as="alternateBounds" />
          </mxGeometry>
        </mxCell>
        <mxCell id="Oq57M_BDFYK8j7h-nGXd-374" value="" style="shape=partialRectangle;html=1;whiteSpace=wrap;connectable=0;strokeColor=inherit;overflow=hidden;fillColor=none;top=0;left=0;bottom=0;right=0;pointerEvents=1;" vertex="1" parent="Oq57M_BDFYK8j7h-nGXd-365">
          <mxGeometry x="696" width="88" height="52" as="geometry">
            <mxRectangle width="88" height="52" as="alternateBounds" />
          </mxGeometry>
        </mxCell>
        <mxCell id="Oq57M_BDFYK8j7h-nGXd-375" value="" style="shape=partialRectangle;html=1;whiteSpace=wrap;connectable=0;strokeColor=inherit;overflow=hidden;fillColor=none;top=0;left=0;bottom=0;right=0;pointerEvents=1;" vertex="1" parent="Oq57M_BDFYK8j7h-nGXd-365">
          <mxGeometry x="784" width="86" height="52" as="geometry">
            <mxRectangle width="86" height="52" as="alternateBounds" />
          </mxGeometry>
        </mxCell>
        <mxCell id="Oq57M_BDFYK8j7h-nGXd-376" value="" style="shape=partialRectangle;html=1;whiteSpace=wrap;connectable=0;strokeColor=inherit;overflow=hidden;fillColor=none;top=0;left=0;bottom=0;right=0;pointerEvents=1;" vertex="1" parent="Oq57M_BDFYK8j7h-nGXd-365">
          <mxGeometry x="870" width="88" height="52" as="geometry">
            <mxRectangle width="88" height="52" as="alternateBounds" />
          </mxGeometry>
        </mxCell>
        <mxCell id="Oq57M_BDFYK8j7h-nGXd-377" value="" style="shape=partialRectangle;html=1;whiteSpace=wrap;connectable=0;strokeColor=inherit;overflow=hidden;fillColor=none;top=0;left=0;bottom=0;right=0;pointerEvents=1;" vertex="1" parent="Oq57M_BDFYK8j7h-nGXd-365">
          <mxGeometry x="958" width="86" height="52" as="geometry">
            <mxRectangle width="86" height="52" as="alternateBounds" />
          </mxGeometry>
        </mxCell>
        <mxCell id="Oq57M_BDFYK8j7h-nGXd-378" value="" style="shape=partialRectangle;html=1;whiteSpace=wrap;connectable=0;strokeColor=inherit;overflow=hidden;fillColor=none;top=0;left=0;bottom=0;right=0;pointerEvents=1;" vertex="1" parent="Oq57M_BDFYK8j7h-nGXd-365">
          <mxGeometry x="1044" width="88" height="52" as="geometry">
            <mxRectangle width="88" height="52" as="alternateBounds" />
          </mxGeometry>
        </mxCell>
        <mxCell id="Oq57M_BDFYK8j7h-nGXd-379" value="" style="shape=partialRectangle;html=1;whiteSpace=wrap;connectable=0;strokeColor=inherit;overflow=hidden;fillColor=none;top=0;left=0;bottom=0;right=0;pointerEvents=1;" vertex="1" parent="Oq57M_BDFYK8j7h-nGXd-365">
          <mxGeometry x="1132" width="86" height="52" as="geometry">
            <mxRectangle width="86" height="52" as="alternateBounds" />
          </mxGeometry>
        </mxCell>
        <mxCell id="Oq57M_BDFYK8j7h-nGXd-380" value="" style="shape=partialRectangle;html=1;whiteSpace=wrap;connectable=0;strokeColor=inherit;overflow=hidden;fillColor=none;top=0;left=0;bottom=0;right=0;pointerEvents=1;" vertex="1" parent="Oq57M_BDFYK8j7h-nGXd-365">
          <mxGeometry x="1218" width="88" height="52" as="geometry">
            <mxRectangle width="88" height="52" as="alternateBounds" />
          </mxGeometry>
        </mxCell>
        <mxCell id="Oq57M_BDFYK8j7h-nGXd-381" value="" style="shape=partialRectangle;html=1;whiteSpace=wrap;connectable=0;strokeColor=inherit;overflow=hidden;fillColor=none;top=0;left=0;bottom=0;right=0;pointerEvents=1;" vertex="1" parent="Oq57M_BDFYK8j7h-nGXd-365">
          <mxGeometry x="1306" width="86" height="52" as="geometry">
            <mxRectangle width="86" height="52" as="alternateBounds" />
          </mxGeometry>
        </mxCell>
        <mxCell id="Oq57M_BDFYK8j7h-nGXd-382" value="" style="shape=partialRectangle;html=1;whiteSpace=wrap;connectable=0;strokeColor=inherit;overflow=hidden;fillColor=none;top=0;left=0;bottom=0;right=0;pointerEvents=1;" vertex="1" parent="Oq57M_BDFYK8j7h-nGXd-365">
          <mxGeometry x="1392" width="88" height="52" as="geometry">
            <mxRectangle width="88" height="52" as="alternateBounds" />
          </mxGeometry>
        </mxCell>
        <mxCell id="Oq57M_BDFYK8j7h-nGXd-383" value="" style="shape=partialRectangle;html=1;whiteSpace=wrap;connectable=0;strokeColor=inherit;overflow=hidden;fillColor=none;top=0;left=0;bottom=0;right=0;pointerEvents=1;" vertex="1" parent="Oq57M_BDFYK8j7h-nGXd-365">
          <mxGeometry x="1480" width="86" height="52" as="geometry">
            <mxRectangle width="86" height="52" as="alternateBounds" />
          </mxGeometry>
        </mxCell>
        <mxCell id="Oq57M_BDFYK8j7h-nGXd-384" value="" style="shape=partialRectangle;html=1;whiteSpace=wrap;connectable=0;strokeColor=inherit;overflow=hidden;fillColor=none;top=0;left=0;bottom=0;right=0;pointerEvents=1;" vertex="1" parent="Oq57M_BDFYK8j7h-nGXd-365">
          <mxGeometry x="1566" width="88" height="52" as="geometry">
            <mxRectangle width="88" height="52" as="alternateBounds" />
          </mxGeometry>
        </mxCell>
        <mxCell id="Oq57M_BDFYK8j7h-nGXd-385" value="" style="shape=partialRectangle;html=1;whiteSpace=wrap;connectable=0;strokeColor=inherit;overflow=hidden;fillColor=none;top=0;left=0;bottom=0;right=0;pointerEvents=1;" vertex="1" parent="Oq57M_BDFYK8j7h-nGXd-365">
          <mxGeometry x="1654" width="86" height="52" as="geometry">
            <mxRectangle width="86" height="52" as="alternateBounds" />
          </mxGeometry>
        </mxCell>
        <mxCell id="Oq57M_BDFYK8j7h-nGXd-386" value="" style="shape=tableRow;horizontal=0;startSize=0;swimlaneHead=0;swimlaneBody=0;strokeColor=inherit;top=0;left=0;bottom=0;right=0;collapsible=0;dropTarget=0;fillColor=none;points=[[0,0.5],[1,0.5]];portConstraint=eastwest;" vertex="1" parent="Oq57M_BDFYK8j7h-nGXd-364">
          <mxGeometry y="82" width="1740" height="52" as="geometry" />
        </mxCell>
        <mxCell id="Oq57M_BDFYK8j7h-nGXd-387" value="" style="shape=partialRectangle;html=1;whiteSpace=wrap;connectable=0;strokeColor=inherit;overflow=hidden;fillColor=none;top=0;left=0;bottom=0;right=0;pointerEvents=1;" vertex="1" parent="Oq57M_BDFYK8j7h-nGXd-386">
          <mxGeometry width="88" height="52" as="geometry">
            <mxRectangle width="88" height="52" as="alternateBounds" />
          </mxGeometry>
        </mxCell>
        <mxCell id="Oq57M_BDFYK8j7h-nGXd-388" value="" style="shape=partialRectangle;html=1;whiteSpace=wrap;connectable=0;strokeColor=inherit;overflow=hidden;fillColor=none;top=0;left=0;bottom=0;right=0;pointerEvents=1;" vertex="1" parent="Oq57M_BDFYK8j7h-nGXd-386">
          <mxGeometry x="88" width="86" height="52" as="geometry">
            <mxRectangle width="86" height="52" as="alternateBounds" />
          </mxGeometry>
        </mxCell>
        <mxCell id="Oq57M_BDFYK8j7h-nGXd-389" value="" style="shape=partialRectangle;html=1;whiteSpace=wrap;connectable=0;strokeColor=inherit;overflow=hidden;fillColor=none;top=0;left=0;bottom=0;right=0;pointerEvents=1;" vertex="1" parent="Oq57M_BDFYK8j7h-nGXd-386">
          <mxGeometry x="174" width="88" height="52" as="geometry">
            <mxRectangle width="88" height="52" as="alternateBounds" />
          </mxGeometry>
        </mxCell>
        <mxCell id="Oq57M_BDFYK8j7h-nGXd-390" value="" style="shape=partialRectangle;html=1;whiteSpace=wrap;connectable=0;strokeColor=inherit;overflow=hidden;fillColor=none;top=0;left=0;bottom=0;right=0;pointerEvents=1;" vertex="1" parent="Oq57M_BDFYK8j7h-nGXd-386">
          <mxGeometry x="262" width="86" height="52" as="geometry">
            <mxRectangle width="86" height="52" as="alternateBounds" />
          </mxGeometry>
        </mxCell>
        <mxCell id="Oq57M_BDFYK8j7h-nGXd-391" value="" style="shape=partialRectangle;html=1;whiteSpace=wrap;connectable=0;strokeColor=inherit;overflow=hidden;fillColor=none;top=0;left=0;bottom=0;right=0;pointerEvents=1;" vertex="1" parent="Oq57M_BDFYK8j7h-nGXd-386">
          <mxGeometry x="348" width="88" height="52" as="geometry">
            <mxRectangle width="88" height="52" as="alternateBounds" />
          </mxGeometry>
        </mxCell>
        <mxCell id="Oq57M_BDFYK8j7h-nGXd-392" value="" style="shape=partialRectangle;html=1;whiteSpace=wrap;connectable=0;strokeColor=inherit;overflow=hidden;fillColor=none;top=0;left=0;bottom=0;right=0;pointerEvents=1;" vertex="1" parent="Oq57M_BDFYK8j7h-nGXd-386">
          <mxGeometry x="436" width="86" height="52" as="geometry">
            <mxRectangle width="86" height="52" as="alternateBounds" />
          </mxGeometry>
        </mxCell>
        <mxCell id="Oq57M_BDFYK8j7h-nGXd-393" value="" style="shape=partialRectangle;html=1;whiteSpace=wrap;connectable=0;strokeColor=inherit;overflow=hidden;fillColor=none;top=0;left=0;bottom=0;right=0;pointerEvents=1;" vertex="1" parent="Oq57M_BDFYK8j7h-nGXd-386">
          <mxGeometry x="522" width="88" height="52" as="geometry">
            <mxRectangle width="88" height="52" as="alternateBounds" />
          </mxGeometry>
        </mxCell>
        <mxCell id="Oq57M_BDFYK8j7h-nGXd-394" value="" style="shape=partialRectangle;html=1;whiteSpace=wrap;connectable=0;strokeColor=inherit;overflow=hidden;fillColor=none;top=0;left=0;bottom=0;right=0;pointerEvents=1;" vertex="1" parent="Oq57M_BDFYK8j7h-nGXd-386">
          <mxGeometry x="610" width="86" height="52" as="geometry">
            <mxRectangle width="86" height="52" as="alternateBounds" />
          </mxGeometry>
        </mxCell>
        <mxCell id="Oq57M_BDFYK8j7h-nGXd-395" value="" style="shape=partialRectangle;html=1;whiteSpace=wrap;connectable=0;strokeColor=inherit;overflow=hidden;fillColor=none;top=0;left=0;bottom=0;right=0;pointerEvents=1;" vertex="1" parent="Oq57M_BDFYK8j7h-nGXd-386">
          <mxGeometry x="696" width="88" height="52" as="geometry">
            <mxRectangle width="88" height="52" as="alternateBounds" />
          </mxGeometry>
        </mxCell>
        <mxCell id="Oq57M_BDFYK8j7h-nGXd-396" value="" style="shape=partialRectangle;html=1;whiteSpace=wrap;connectable=0;strokeColor=inherit;overflow=hidden;fillColor=none;top=0;left=0;bottom=0;right=0;pointerEvents=1;" vertex="1" parent="Oq57M_BDFYK8j7h-nGXd-386">
          <mxGeometry x="784" width="86" height="52" as="geometry">
            <mxRectangle width="86" height="52" as="alternateBounds" />
          </mxGeometry>
        </mxCell>
        <mxCell id="Oq57M_BDFYK8j7h-nGXd-397" value="" style="shape=partialRectangle;html=1;whiteSpace=wrap;connectable=0;strokeColor=inherit;overflow=hidden;fillColor=none;top=0;left=0;bottom=0;right=0;pointerEvents=1;" vertex="1" parent="Oq57M_BDFYK8j7h-nGXd-386">
          <mxGeometry x="870" width="88" height="52" as="geometry">
            <mxRectangle width="88" height="52" as="alternateBounds" />
          </mxGeometry>
        </mxCell>
        <mxCell id="Oq57M_BDFYK8j7h-nGXd-398" value="" style="shape=partialRectangle;html=1;whiteSpace=wrap;connectable=0;strokeColor=inherit;overflow=hidden;fillColor=none;top=0;left=0;bottom=0;right=0;pointerEvents=1;" vertex="1" parent="Oq57M_BDFYK8j7h-nGXd-386">
          <mxGeometry x="958" width="86" height="52" as="geometry">
            <mxRectangle width="86" height="52" as="alternateBounds" />
          </mxGeometry>
        </mxCell>
        <mxCell id="Oq57M_BDFYK8j7h-nGXd-399" value="" style="shape=partialRectangle;html=1;whiteSpace=wrap;connectable=0;strokeColor=inherit;overflow=hidden;fillColor=none;top=0;left=0;bottom=0;right=0;pointerEvents=1;" vertex="1" parent="Oq57M_BDFYK8j7h-nGXd-386">
          <mxGeometry x="1044" width="88" height="52" as="geometry">
            <mxRectangle width="88" height="52" as="alternateBounds" />
          </mxGeometry>
        </mxCell>
        <mxCell id="Oq57M_BDFYK8j7h-nGXd-400" value="" style="shape=partialRectangle;html=1;whiteSpace=wrap;connectable=0;strokeColor=inherit;overflow=hidden;fillColor=none;top=0;left=0;bottom=0;right=0;pointerEvents=1;" vertex="1" parent="Oq57M_BDFYK8j7h-nGXd-386">
          <mxGeometry x="1132" width="86" height="52" as="geometry">
            <mxRectangle width="86" height="52" as="alternateBounds" />
          </mxGeometry>
        </mxCell>
        <mxCell id="Oq57M_BDFYK8j7h-nGXd-401" value="" style="shape=partialRectangle;html=1;whiteSpace=wrap;connectable=0;strokeColor=inherit;overflow=hidden;fillColor=none;top=0;left=0;bottom=0;right=0;pointerEvents=1;" vertex="1" parent="Oq57M_BDFYK8j7h-nGXd-386">
          <mxGeometry x="1218" width="88" height="52" as="geometry">
            <mxRectangle width="88" height="52" as="alternateBounds" />
          </mxGeometry>
        </mxCell>
        <mxCell id="Oq57M_BDFYK8j7h-nGXd-402" value="" style="shape=partialRectangle;html=1;whiteSpace=wrap;connectable=0;strokeColor=inherit;overflow=hidden;fillColor=none;top=0;left=0;bottom=0;right=0;pointerEvents=1;" vertex="1" parent="Oq57M_BDFYK8j7h-nGXd-386">
          <mxGeometry x="1306" width="86" height="52" as="geometry">
            <mxRectangle width="86" height="52" as="alternateBounds" />
          </mxGeometry>
        </mxCell>
        <mxCell id="Oq57M_BDFYK8j7h-nGXd-403" value="" style="shape=partialRectangle;html=1;whiteSpace=wrap;connectable=0;strokeColor=inherit;overflow=hidden;fillColor=none;top=0;left=0;bottom=0;right=0;pointerEvents=1;" vertex="1" parent="Oq57M_BDFYK8j7h-nGXd-386">
          <mxGeometry x="1392" width="88" height="52" as="geometry">
            <mxRectangle width="88" height="52" as="alternateBounds" />
          </mxGeometry>
        </mxCell>
        <mxCell id="Oq57M_BDFYK8j7h-nGXd-404" value="" style="shape=partialRectangle;html=1;whiteSpace=wrap;connectable=0;strokeColor=inherit;overflow=hidden;fillColor=none;top=0;left=0;bottom=0;right=0;pointerEvents=1;" vertex="1" parent="Oq57M_BDFYK8j7h-nGXd-386">
          <mxGeometry x="1480" width="86" height="52" as="geometry">
            <mxRectangle width="86" height="52" as="alternateBounds" />
          </mxGeometry>
        </mxCell>
        <mxCell id="Oq57M_BDFYK8j7h-nGXd-405" value="" style="shape=partialRectangle;html=1;whiteSpace=wrap;connectable=0;strokeColor=inherit;overflow=hidden;fillColor=none;top=0;left=0;bottom=0;right=0;pointerEvents=1;" vertex="1" parent="Oq57M_BDFYK8j7h-nGXd-386">
          <mxGeometry x="1566" width="88" height="52" as="geometry">
            <mxRectangle width="88" height="52" as="alternateBounds" />
          </mxGeometry>
        </mxCell>
        <mxCell id="Oq57M_BDFYK8j7h-nGXd-406" value="" style="shape=partialRectangle;html=1;whiteSpace=wrap;connectable=0;strokeColor=inherit;overflow=hidden;fillColor=none;top=0;left=0;bottom=0;right=0;pointerEvents=1;" vertex="1" parent="Oq57M_BDFYK8j7h-nGXd-386">
          <mxGeometry x="1654" width="86" height="52" as="geometry">
            <mxRectangle width="86" height="52" as="alternateBounds" />
          </mxGeometry>
        </mxCell>
        <mxCell id="Oq57M_BDFYK8j7h-nGXd-407" value="" style="shape=tableRow;horizontal=0;startSize=0;swimlaneHead=0;swimlaneBody=0;strokeColor=inherit;top=0;left=0;bottom=0;right=0;collapsible=0;dropTarget=0;fillColor=none;points=[[0,0.5],[1,0.5]];portConstraint=eastwest;" vertex="1" parent="Oq57M_BDFYK8j7h-nGXd-364">
          <mxGeometry y="134" width="1740" height="52" as="geometry" />
        </mxCell>
        <mxCell id="Oq57M_BDFYK8j7h-nGXd-408" value="" style="shape=partialRectangle;html=1;whiteSpace=wrap;connectable=0;strokeColor=inherit;overflow=hidden;fillColor=none;top=0;left=0;bottom=0;right=0;pointerEvents=1;" vertex="1" parent="Oq57M_BDFYK8j7h-nGXd-407">
          <mxGeometry width="88" height="52" as="geometry">
            <mxRectangle width="88" height="52" as="alternateBounds" />
          </mxGeometry>
        </mxCell>
        <mxCell id="Oq57M_BDFYK8j7h-nGXd-409" value="" style="shape=partialRectangle;html=1;whiteSpace=wrap;connectable=0;strokeColor=inherit;overflow=hidden;fillColor=none;top=0;left=0;bottom=0;right=0;pointerEvents=1;" vertex="1" parent="Oq57M_BDFYK8j7h-nGXd-407">
          <mxGeometry x="88" width="86" height="52" as="geometry">
            <mxRectangle width="86" height="52" as="alternateBounds" />
          </mxGeometry>
        </mxCell>
        <mxCell id="Oq57M_BDFYK8j7h-nGXd-410" value="" style="shape=partialRectangle;html=1;whiteSpace=wrap;connectable=0;strokeColor=inherit;overflow=hidden;fillColor=none;top=0;left=0;bottom=0;right=0;pointerEvents=1;" vertex="1" parent="Oq57M_BDFYK8j7h-nGXd-407">
          <mxGeometry x="174" width="88" height="52" as="geometry">
            <mxRectangle width="88" height="52" as="alternateBounds" />
          </mxGeometry>
        </mxCell>
        <mxCell id="Oq57M_BDFYK8j7h-nGXd-411" value="" style="shape=partialRectangle;html=1;whiteSpace=wrap;connectable=0;strokeColor=inherit;overflow=hidden;fillColor=none;top=0;left=0;bottom=0;right=0;pointerEvents=1;" vertex="1" parent="Oq57M_BDFYK8j7h-nGXd-407">
          <mxGeometry x="262" width="86" height="52" as="geometry">
            <mxRectangle width="86" height="52" as="alternateBounds" />
          </mxGeometry>
        </mxCell>
        <mxCell id="Oq57M_BDFYK8j7h-nGXd-412" value="" style="shape=partialRectangle;html=1;whiteSpace=wrap;connectable=0;strokeColor=inherit;overflow=hidden;fillColor=none;top=0;left=0;bottom=0;right=0;pointerEvents=1;" vertex="1" parent="Oq57M_BDFYK8j7h-nGXd-407">
          <mxGeometry x="348" width="88" height="52" as="geometry">
            <mxRectangle width="88" height="52" as="alternateBounds" />
          </mxGeometry>
        </mxCell>
        <mxCell id="Oq57M_BDFYK8j7h-nGXd-413" value="" style="shape=partialRectangle;html=1;whiteSpace=wrap;connectable=0;strokeColor=inherit;overflow=hidden;fillColor=none;top=0;left=0;bottom=0;right=0;pointerEvents=1;" vertex="1" parent="Oq57M_BDFYK8j7h-nGXd-407">
          <mxGeometry x="436" width="86" height="52" as="geometry">
            <mxRectangle width="86" height="52" as="alternateBounds" />
          </mxGeometry>
        </mxCell>
        <mxCell id="Oq57M_BDFYK8j7h-nGXd-414" value="" style="shape=partialRectangle;html=1;whiteSpace=wrap;connectable=0;strokeColor=inherit;overflow=hidden;fillColor=none;top=0;left=0;bottom=0;right=0;pointerEvents=1;" vertex="1" parent="Oq57M_BDFYK8j7h-nGXd-407">
          <mxGeometry x="522" width="88" height="52" as="geometry">
            <mxRectangle width="88" height="52" as="alternateBounds" />
          </mxGeometry>
        </mxCell>
        <mxCell id="Oq57M_BDFYK8j7h-nGXd-415" value="" style="shape=partialRectangle;html=1;whiteSpace=wrap;connectable=0;strokeColor=inherit;overflow=hidden;fillColor=none;top=0;left=0;bottom=0;right=0;pointerEvents=1;" vertex="1" parent="Oq57M_BDFYK8j7h-nGXd-407">
          <mxGeometry x="610" width="86" height="52" as="geometry">
            <mxRectangle width="86" height="52" as="alternateBounds" />
          </mxGeometry>
        </mxCell>
        <mxCell id="Oq57M_BDFYK8j7h-nGXd-416" value="" style="shape=partialRectangle;html=1;whiteSpace=wrap;connectable=0;strokeColor=inherit;overflow=hidden;fillColor=none;top=0;left=0;bottom=0;right=0;pointerEvents=1;" vertex="1" parent="Oq57M_BDFYK8j7h-nGXd-407">
          <mxGeometry x="696" width="88" height="52" as="geometry">
            <mxRectangle width="88" height="52" as="alternateBounds" />
          </mxGeometry>
        </mxCell>
        <mxCell id="Oq57M_BDFYK8j7h-nGXd-417" value="" style="shape=partialRectangle;html=1;whiteSpace=wrap;connectable=0;strokeColor=inherit;overflow=hidden;fillColor=none;top=0;left=0;bottom=0;right=0;pointerEvents=1;" vertex="1" parent="Oq57M_BDFYK8j7h-nGXd-407">
          <mxGeometry x="784" width="86" height="52" as="geometry">
            <mxRectangle width="86" height="52" as="alternateBounds" />
          </mxGeometry>
        </mxCell>
        <mxCell id="Oq57M_BDFYK8j7h-nGXd-418" value="" style="shape=partialRectangle;html=1;whiteSpace=wrap;connectable=0;strokeColor=inherit;overflow=hidden;fillColor=none;top=0;left=0;bottom=0;right=0;pointerEvents=1;" vertex="1" parent="Oq57M_BDFYK8j7h-nGXd-407">
          <mxGeometry x="870" width="88" height="52" as="geometry">
            <mxRectangle width="88" height="52" as="alternateBounds" />
          </mxGeometry>
        </mxCell>
        <mxCell id="Oq57M_BDFYK8j7h-nGXd-419" value="" style="shape=partialRectangle;html=1;whiteSpace=wrap;connectable=0;strokeColor=inherit;overflow=hidden;fillColor=none;top=0;left=0;bottom=0;right=0;pointerEvents=1;" vertex="1" parent="Oq57M_BDFYK8j7h-nGXd-407">
          <mxGeometry x="958" width="86" height="52" as="geometry">
            <mxRectangle width="86" height="52" as="alternateBounds" />
          </mxGeometry>
        </mxCell>
        <mxCell id="Oq57M_BDFYK8j7h-nGXd-420" value="" style="shape=partialRectangle;html=1;whiteSpace=wrap;connectable=0;strokeColor=inherit;overflow=hidden;fillColor=none;top=0;left=0;bottom=0;right=0;pointerEvents=1;" vertex="1" parent="Oq57M_BDFYK8j7h-nGXd-407">
          <mxGeometry x="1044" width="88" height="52" as="geometry">
            <mxRectangle width="88" height="52" as="alternateBounds" />
          </mxGeometry>
        </mxCell>
        <mxCell id="Oq57M_BDFYK8j7h-nGXd-421" value="" style="shape=partialRectangle;html=1;whiteSpace=wrap;connectable=0;strokeColor=inherit;overflow=hidden;fillColor=none;top=0;left=0;bottom=0;right=0;pointerEvents=1;" vertex="1" parent="Oq57M_BDFYK8j7h-nGXd-407">
          <mxGeometry x="1132" width="86" height="52" as="geometry">
            <mxRectangle width="86" height="52" as="alternateBounds" />
          </mxGeometry>
        </mxCell>
        <mxCell id="Oq57M_BDFYK8j7h-nGXd-422" value="" style="shape=partialRectangle;html=1;whiteSpace=wrap;connectable=0;strokeColor=inherit;overflow=hidden;fillColor=none;top=0;left=0;bottom=0;right=0;pointerEvents=1;" vertex="1" parent="Oq57M_BDFYK8j7h-nGXd-407">
          <mxGeometry x="1218" width="88" height="52" as="geometry">
            <mxRectangle width="88" height="52" as="alternateBounds" />
          </mxGeometry>
        </mxCell>
        <mxCell id="Oq57M_BDFYK8j7h-nGXd-423" value="" style="shape=partialRectangle;html=1;whiteSpace=wrap;connectable=0;strokeColor=inherit;overflow=hidden;fillColor=none;top=0;left=0;bottom=0;right=0;pointerEvents=1;" vertex="1" parent="Oq57M_BDFYK8j7h-nGXd-407">
          <mxGeometry x="1306" width="86" height="52" as="geometry">
            <mxRectangle width="86" height="52" as="alternateBounds" />
          </mxGeometry>
        </mxCell>
        <mxCell id="Oq57M_BDFYK8j7h-nGXd-424" value="" style="shape=partialRectangle;html=1;whiteSpace=wrap;connectable=0;strokeColor=inherit;overflow=hidden;fillColor=none;top=0;left=0;bottom=0;right=0;pointerEvents=1;" vertex="1" parent="Oq57M_BDFYK8j7h-nGXd-407">
          <mxGeometry x="1392" width="88" height="52" as="geometry">
            <mxRectangle width="88" height="52" as="alternateBounds" />
          </mxGeometry>
        </mxCell>
        <mxCell id="Oq57M_BDFYK8j7h-nGXd-425" value="" style="shape=partialRectangle;html=1;whiteSpace=wrap;connectable=0;strokeColor=inherit;overflow=hidden;fillColor=none;top=0;left=0;bottom=0;right=0;pointerEvents=1;" vertex="1" parent="Oq57M_BDFYK8j7h-nGXd-407">
          <mxGeometry x="1480" width="86" height="52" as="geometry">
            <mxRectangle width="86" height="52" as="alternateBounds" />
          </mxGeometry>
        </mxCell>
        <mxCell id="Oq57M_BDFYK8j7h-nGXd-426" value="" style="shape=partialRectangle;html=1;whiteSpace=wrap;connectable=0;strokeColor=inherit;overflow=hidden;fillColor=none;top=0;left=0;bottom=0;right=0;pointerEvents=1;" vertex="1" parent="Oq57M_BDFYK8j7h-nGXd-407">
          <mxGeometry x="1566" width="88" height="52" as="geometry">
            <mxRectangle width="88" height="52" as="alternateBounds" />
          </mxGeometry>
        </mxCell>
        <mxCell id="Oq57M_BDFYK8j7h-nGXd-427" value="" style="shape=partialRectangle;html=1;whiteSpace=wrap;connectable=0;strokeColor=inherit;overflow=hidden;fillColor=none;top=0;left=0;bottom=0;right=0;pointerEvents=1;" vertex="1" parent="Oq57M_BDFYK8j7h-nGXd-407">
          <mxGeometry x="1654" width="86" height="52" as="geometry">
            <mxRectangle width="86" height="52" as="alternateBounds" />
          </mxGeometry>
        </mxCell>
        <mxCell id="Oq57M_BDFYK8j7h-nGXd-428" value="" style="shape=tableRow;horizontal=0;startSize=0;swimlaneHead=0;swimlaneBody=0;strokeColor=inherit;top=0;left=0;bottom=0;right=0;collapsible=0;dropTarget=0;fillColor=none;points=[[0,0.5],[1,0.5]];portConstraint=eastwest;" vertex="1" parent="Oq57M_BDFYK8j7h-nGXd-364">
          <mxGeometry y="186" width="1740" height="52" as="geometry" />
        </mxCell>
        <mxCell id="Oq57M_BDFYK8j7h-nGXd-429" value="" style="shape=partialRectangle;html=1;whiteSpace=wrap;connectable=0;strokeColor=inherit;overflow=hidden;fillColor=none;top=0;left=0;bottom=0;right=0;pointerEvents=1;" vertex="1" parent="Oq57M_BDFYK8j7h-nGXd-428">
          <mxGeometry width="88" height="52" as="geometry">
            <mxRectangle width="88" height="52" as="alternateBounds" />
          </mxGeometry>
        </mxCell>
        <mxCell id="Oq57M_BDFYK8j7h-nGXd-430" value="" style="shape=partialRectangle;html=1;whiteSpace=wrap;connectable=0;strokeColor=inherit;overflow=hidden;fillColor=none;top=0;left=0;bottom=0;right=0;pointerEvents=1;" vertex="1" parent="Oq57M_BDFYK8j7h-nGXd-428">
          <mxGeometry x="88" width="86" height="52" as="geometry">
            <mxRectangle width="86" height="52" as="alternateBounds" />
          </mxGeometry>
        </mxCell>
        <mxCell id="Oq57M_BDFYK8j7h-nGXd-431" value="" style="shape=partialRectangle;html=1;whiteSpace=wrap;connectable=0;strokeColor=inherit;overflow=hidden;fillColor=none;top=0;left=0;bottom=0;right=0;pointerEvents=1;" vertex="1" parent="Oq57M_BDFYK8j7h-nGXd-428">
          <mxGeometry x="174" width="88" height="52" as="geometry">
            <mxRectangle width="88" height="52" as="alternateBounds" />
          </mxGeometry>
        </mxCell>
        <mxCell id="Oq57M_BDFYK8j7h-nGXd-432" value="" style="shape=partialRectangle;html=1;whiteSpace=wrap;connectable=0;strokeColor=inherit;overflow=hidden;fillColor=none;top=0;left=0;bottom=0;right=0;pointerEvents=1;" vertex="1" parent="Oq57M_BDFYK8j7h-nGXd-428">
          <mxGeometry x="262" width="86" height="52" as="geometry">
            <mxRectangle width="86" height="52" as="alternateBounds" />
          </mxGeometry>
        </mxCell>
        <mxCell id="Oq57M_BDFYK8j7h-nGXd-433" value="" style="shape=partialRectangle;html=1;whiteSpace=wrap;connectable=0;strokeColor=inherit;overflow=hidden;fillColor=none;top=0;left=0;bottom=0;right=0;pointerEvents=1;" vertex="1" parent="Oq57M_BDFYK8j7h-nGXd-428">
          <mxGeometry x="348" width="88" height="52" as="geometry">
            <mxRectangle width="88" height="52" as="alternateBounds" />
          </mxGeometry>
        </mxCell>
        <mxCell id="Oq57M_BDFYK8j7h-nGXd-434" value="" style="shape=partialRectangle;html=1;whiteSpace=wrap;connectable=0;strokeColor=inherit;overflow=hidden;fillColor=none;top=0;left=0;bottom=0;right=0;pointerEvents=1;" vertex="1" parent="Oq57M_BDFYK8j7h-nGXd-428">
          <mxGeometry x="436" width="86" height="52" as="geometry">
            <mxRectangle width="86" height="52" as="alternateBounds" />
          </mxGeometry>
        </mxCell>
        <mxCell id="Oq57M_BDFYK8j7h-nGXd-435" value="" style="shape=partialRectangle;html=1;whiteSpace=wrap;connectable=0;strokeColor=inherit;overflow=hidden;fillColor=none;top=0;left=0;bottom=0;right=0;pointerEvents=1;" vertex="1" parent="Oq57M_BDFYK8j7h-nGXd-428">
          <mxGeometry x="522" width="88" height="52" as="geometry">
            <mxRectangle width="88" height="52" as="alternateBounds" />
          </mxGeometry>
        </mxCell>
        <mxCell id="Oq57M_BDFYK8j7h-nGXd-436" value="" style="shape=partialRectangle;html=1;whiteSpace=wrap;connectable=0;strokeColor=inherit;overflow=hidden;fillColor=none;top=0;left=0;bottom=0;right=0;pointerEvents=1;" vertex="1" parent="Oq57M_BDFYK8j7h-nGXd-428">
          <mxGeometry x="610" width="86" height="52" as="geometry">
            <mxRectangle width="86" height="52" as="alternateBounds" />
          </mxGeometry>
        </mxCell>
        <mxCell id="Oq57M_BDFYK8j7h-nGXd-437" value="" style="shape=partialRectangle;html=1;whiteSpace=wrap;connectable=0;strokeColor=inherit;overflow=hidden;fillColor=none;top=0;left=0;bottom=0;right=0;pointerEvents=1;" vertex="1" parent="Oq57M_BDFYK8j7h-nGXd-428">
          <mxGeometry x="696" width="88" height="52" as="geometry">
            <mxRectangle width="88" height="52" as="alternateBounds" />
          </mxGeometry>
        </mxCell>
        <mxCell id="Oq57M_BDFYK8j7h-nGXd-438" value="" style="shape=partialRectangle;html=1;whiteSpace=wrap;connectable=0;strokeColor=inherit;overflow=hidden;fillColor=none;top=0;left=0;bottom=0;right=0;pointerEvents=1;" vertex="1" parent="Oq57M_BDFYK8j7h-nGXd-428">
          <mxGeometry x="784" width="86" height="52" as="geometry">
            <mxRectangle width="86" height="52" as="alternateBounds" />
          </mxGeometry>
        </mxCell>
        <mxCell id="Oq57M_BDFYK8j7h-nGXd-439" value="" style="shape=partialRectangle;html=1;whiteSpace=wrap;connectable=0;strokeColor=inherit;overflow=hidden;fillColor=none;top=0;left=0;bottom=0;right=0;pointerEvents=1;" vertex="1" parent="Oq57M_BDFYK8j7h-nGXd-428">
          <mxGeometry x="870" width="88" height="52" as="geometry">
            <mxRectangle width="88" height="52" as="alternateBounds" />
          </mxGeometry>
        </mxCell>
        <mxCell id="Oq57M_BDFYK8j7h-nGXd-440" value="" style="shape=partialRectangle;html=1;whiteSpace=wrap;connectable=0;strokeColor=inherit;overflow=hidden;fillColor=none;top=0;left=0;bottom=0;right=0;pointerEvents=1;" vertex="1" parent="Oq57M_BDFYK8j7h-nGXd-428">
          <mxGeometry x="958" width="86" height="52" as="geometry">
            <mxRectangle width="86" height="52" as="alternateBounds" />
          </mxGeometry>
        </mxCell>
        <mxCell id="Oq57M_BDFYK8j7h-nGXd-441" value="" style="shape=partialRectangle;html=1;whiteSpace=wrap;connectable=0;strokeColor=inherit;overflow=hidden;fillColor=none;top=0;left=0;bottom=0;right=0;pointerEvents=1;" vertex="1" parent="Oq57M_BDFYK8j7h-nGXd-428">
          <mxGeometry x="1044" width="88" height="52" as="geometry">
            <mxRectangle width="88" height="52" as="alternateBounds" />
          </mxGeometry>
        </mxCell>
        <mxCell id="Oq57M_BDFYK8j7h-nGXd-442" value="" style="shape=partialRectangle;html=1;whiteSpace=wrap;connectable=0;strokeColor=inherit;overflow=hidden;fillColor=none;top=0;left=0;bottom=0;right=0;pointerEvents=1;" vertex="1" parent="Oq57M_BDFYK8j7h-nGXd-428">
          <mxGeometry x="1132" width="86" height="52" as="geometry">
            <mxRectangle width="86" height="52" as="alternateBounds" />
          </mxGeometry>
        </mxCell>
        <mxCell id="Oq57M_BDFYK8j7h-nGXd-443" value="" style="shape=partialRectangle;html=1;whiteSpace=wrap;connectable=0;strokeColor=inherit;overflow=hidden;fillColor=none;top=0;left=0;bottom=0;right=0;pointerEvents=1;" vertex="1" parent="Oq57M_BDFYK8j7h-nGXd-428">
          <mxGeometry x="1218" width="88" height="52" as="geometry">
            <mxRectangle width="88" height="52" as="alternateBounds" />
          </mxGeometry>
        </mxCell>
        <mxCell id="Oq57M_BDFYK8j7h-nGXd-444" value="" style="shape=partialRectangle;html=1;whiteSpace=wrap;connectable=0;strokeColor=inherit;overflow=hidden;fillColor=none;top=0;left=0;bottom=0;right=0;pointerEvents=1;" vertex="1" parent="Oq57M_BDFYK8j7h-nGXd-428">
          <mxGeometry x="1306" width="86" height="52" as="geometry">
            <mxRectangle width="86" height="52" as="alternateBounds" />
          </mxGeometry>
        </mxCell>
        <mxCell id="Oq57M_BDFYK8j7h-nGXd-445" value="" style="shape=partialRectangle;html=1;whiteSpace=wrap;connectable=0;strokeColor=inherit;overflow=hidden;fillColor=none;top=0;left=0;bottom=0;right=0;pointerEvents=1;" vertex="1" parent="Oq57M_BDFYK8j7h-nGXd-428">
          <mxGeometry x="1392" width="88" height="52" as="geometry">
            <mxRectangle width="88" height="52" as="alternateBounds" />
          </mxGeometry>
        </mxCell>
        <mxCell id="Oq57M_BDFYK8j7h-nGXd-446" value="" style="shape=partialRectangle;html=1;whiteSpace=wrap;connectable=0;strokeColor=inherit;overflow=hidden;fillColor=none;top=0;left=0;bottom=0;right=0;pointerEvents=1;" vertex="1" parent="Oq57M_BDFYK8j7h-nGXd-428">
          <mxGeometry x="1480" width="86" height="52" as="geometry">
            <mxRectangle width="86" height="52" as="alternateBounds" />
          </mxGeometry>
        </mxCell>
        <mxCell id="Oq57M_BDFYK8j7h-nGXd-447" value="" style="shape=partialRectangle;html=1;whiteSpace=wrap;connectable=0;strokeColor=inherit;overflow=hidden;fillColor=none;top=0;left=0;bottom=0;right=0;pointerEvents=1;" vertex="1" parent="Oq57M_BDFYK8j7h-nGXd-428">
          <mxGeometry x="1566" width="88" height="52" as="geometry">
            <mxRectangle width="88" height="52" as="alternateBounds" />
          </mxGeometry>
        </mxCell>
        <mxCell id="Oq57M_BDFYK8j7h-nGXd-448" value="" style="shape=partialRectangle;html=1;whiteSpace=wrap;connectable=0;strokeColor=inherit;overflow=hidden;fillColor=none;top=0;left=0;bottom=0;right=0;pointerEvents=1;" vertex="1" parent="Oq57M_BDFYK8j7h-nGXd-428">
          <mxGeometry x="1654" width="86" height="52" as="geometry">
            <mxRectangle width="86" height="52" as="alternateBounds" />
          </mxGeometry>
        </mxCell>
        <mxCell id="Oq57M_BDFYK8j7h-nGXd-449" value="" style="shape=tableRow;horizontal=0;startSize=0;swimlaneHead=0;swimlaneBody=0;strokeColor=inherit;top=0;left=0;bottom=0;right=0;collapsible=0;dropTarget=0;fillColor=none;points=[[0,0.5],[1,0.5]];portConstraint=eastwest;" vertex="1" parent="Oq57M_BDFYK8j7h-nGXd-364">
          <mxGeometry y="238" width="1740" height="52" as="geometry" />
        </mxCell>
        <mxCell id="Oq57M_BDFYK8j7h-nGXd-450" value="" style="shape=partialRectangle;html=1;whiteSpace=wrap;connectable=0;strokeColor=inherit;overflow=hidden;fillColor=none;top=0;left=0;bottom=0;right=0;pointerEvents=1;" vertex="1" parent="Oq57M_BDFYK8j7h-nGXd-449">
          <mxGeometry width="88" height="52" as="geometry">
            <mxRectangle width="88" height="52" as="alternateBounds" />
          </mxGeometry>
        </mxCell>
        <mxCell id="Oq57M_BDFYK8j7h-nGXd-451" value="" style="shape=partialRectangle;html=1;whiteSpace=wrap;connectable=0;strokeColor=inherit;overflow=hidden;fillColor=none;top=0;left=0;bottom=0;right=0;pointerEvents=1;" vertex="1" parent="Oq57M_BDFYK8j7h-nGXd-449">
          <mxGeometry x="88" width="86" height="52" as="geometry">
            <mxRectangle width="86" height="52" as="alternateBounds" />
          </mxGeometry>
        </mxCell>
        <mxCell id="Oq57M_BDFYK8j7h-nGXd-452" value="" style="shape=partialRectangle;html=1;whiteSpace=wrap;connectable=0;strokeColor=inherit;overflow=hidden;fillColor=none;top=0;left=0;bottom=0;right=0;pointerEvents=1;" vertex="1" parent="Oq57M_BDFYK8j7h-nGXd-449">
          <mxGeometry x="174" width="88" height="52" as="geometry">
            <mxRectangle width="88" height="52" as="alternateBounds" />
          </mxGeometry>
        </mxCell>
        <mxCell id="Oq57M_BDFYK8j7h-nGXd-453" value="" style="shape=partialRectangle;html=1;whiteSpace=wrap;connectable=0;strokeColor=inherit;overflow=hidden;fillColor=none;top=0;left=0;bottom=0;right=0;pointerEvents=1;" vertex="1" parent="Oq57M_BDFYK8j7h-nGXd-449">
          <mxGeometry x="262" width="86" height="52" as="geometry">
            <mxRectangle width="86" height="52" as="alternateBounds" />
          </mxGeometry>
        </mxCell>
        <mxCell id="Oq57M_BDFYK8j7h-nGXd-454" value="" style="shape=partialRectangle;html=1;whiteSpace=wrap;connectable=0;strokeColor=inherit;overflow=hidden;fillColor=none;top=0;left=0;bottom=0;right=0;pointerEvents=1;" vertex="1" parent="Oq57M_BDFYK8j7h-nGXd-449">
          <mxGeometry x="348" width="88" height="52" as="geometry">
            <mxRectangle width="88" height="52" as="alternateBounds" />
          </mxGeometry>
        </mxCell>
        <mxCell id="Oq57M_BDFYK8j7h-nGXd-455" value="" style="shape=partialRectangle;html=1;whiteSpace=wrap;connectable=0;strokeColor=inherit;overflow=hidden;fillColor=none;top=0;left=0;bottom=0;right=0;pointerEvents=1;" vertex="1" parent="Oq57M_BDFYK8j7h-nGXd-449">
          <mxGeometry x="436" width="86" height="52" as="geometry">
            <mxRectangle width="86" height="52" as="alternateBounds" />
          </mxGeometry>
        </mxCell>
        <mxCell id="Oq57M_BDFYK8j7h-nGXd-456" value="" style="shape=partialRectangle;html=1;whiteSpace=wrap;connectable=0;strokeColor=inherit;overflow=hidden;fillColor=none;top=0;left=0;bottom=0;right=0;pointerEvents=1;" vertex="1" parent="Oq57M_BDFYK8j7h-nGXd-449">
          <mxGeometry x="522" width="88" height="52" as="geometry">
            <mxRectangle width="88" height="52" as="alternateBounds" />
          </mxGeometry>
        </mxCell>
        <mxCell id="Oq57M_BDFYK8j7h-nGXd-457" value="" style="shape=partialRectangle;html=1;whiteSpace=wrap;connectable=0;strokeColor=inherit;overflow=hidden;fillColor=none;top=0;left=0;bottom=0;right=0;pointerEvents=1;" vertex="1" parent="Oq57M_BDFYK8j7h-nGXd-449">
          <mxGeometry x="610" width="86" height="52" as="geometry">
            <mxRectangle width="86" height="52" as="alternateBounds" />
          </mxGeometry>
        </mxCell>
        <mxCell id="Oq57M_BDFYK8j7h-nGXd-458" value="" style="shape=partialRectangle;html=1;whiteSpace=wrap;connectable=0;strokeColor=inherit;overflow=hidden;fillColor=none;top=0;left=0;bottom=0;right=0;pointerEvents=1;" vertex="1" parent="Oq57M_BDFYK8j7h-nGXd-449">
          <mxGeometry x="696" width="88" height="52" as="geometry">
            <mxRectangle width="88" height="52" as="alternateBounds" />
          </mxGeometry>
        </mxCell>
        <mxCell id="Oq57M_BDFYK8j7h-nGXd-459" value="" style="shape=partialRectangle;html=1;whiteSpace=wrap;connectable=0;strokeColor=inherit;overflow=hidden;fillColor=none;top=0;left=0;bottom=0;right=0;pointerEvents=1;" vertex="1" parent="Oq57M_BDFYK8j7h-nGXd-449">
          <mxGeometry x="784" width="86" height="52" as="geometry">
            <mxRectangle width="86" height="52" as="alternateBounds" />
          </mxGeometry>
        </mxCell>
        <mxCell id="Oq57M_BDFYK8j7h-nGXd-460" value="" style="shape=partialRectangle;html=1;whiteSpace=wrap;connectable=0;strokeColor=inherit;overflow=hidden;fillColor=none;top=0;left=0;bottom=0;right=0;pointerEvents=1;" vertex="1" parent="Oq57M_BDFYK8j7h-nGXd-449">
          <mxGeometry x="870" width="88" height="52" as="geometry">
            <mxRectangle width="88" height="52" as="alternateBounds" />
          </mxGeometry>
        </mxCell>
        <mxCell id="Oq57M_BDFYK8j7h-nGXd-461" value="" style="shape=partialRectangle;html=1;whiteSpace=wrap;connectable=0;strokeColor=inherit;overflow=hidden;fillColor=none;top=0;left=0;bottom=0;right=0;pointerEvents=1;" vertex="1" parent="Oq57M_BDFYK8j7h-nGXd-449">
          <mxGeometry x="958" width="86" height="52" as="geometry">
            <mxRectangle width="86" height="52" as="alternateBounds" />
          </mxGeometry>
        </mxCell>
        <mxCell id="Oq57M_BDFYK8j7h-nGXd-462" value="" style="shape=partialRectangle;html=1;whiteSpace=wrap;connectable=0;strokeColor=inherit;overflow=hidden;fillColor=none;top=0;left=0;bottom=0;right=0;pointerEvents=1;" vertex="1" parent="Oq57M_BDFYK8j7h-nGXd-449">
          <mxGeometry x="1044" width="88" height="52" as="geometry">
            <mxRectangle width="88" height="52" as="alternateBounds" />
          </mxGeometry>
        </mxCell>
        <mxCell id="Oq57M_BDFYK8j7h-nGXd-463" value="" style="shape=partialRectangle;html=1;whiteSpace=wrap;connectable=0;strokeColor=inherit;overflow=hidden;fillColor=none;top=0;left=0;bottom=0;right=0;pointerEvents=1;" vertex="1" parent="Oq57M_BDFYK8j7h-nGXd-449">
          <mxGeometry x="1132" width="86" height="52" as="geometry">
            <mxRectangle width="86" height="52" as="alternateBounds" />
          </mxGeometry>
        </mxCell>
        <mxCell id="Oq57M_BDFYK8j7h-nGXd-464" value="" style="shape=partialRectangle;html=1;whiteSpace=wrap;connectable=0;strokeColor=inherit;overflow=hidden;fillColor=none;top=0;left=0;bottom=0;right=0;pointerEvents=1;" vertex="1" parent="Oq57M_BDFYK8j7h-nGXd-449">
          <mxGeometry x="1218" width="88" height="52" as="geometry">
            <mxRectangle width="88" height="52" as="alternateBounds" />
          </mxGeometry>
        </mxCell>
        <mxCell id="Oq57M_BDFYK8j7h-nGXd-465" value="" style="shape=partialRectangle;html=1;whiteSpace=wrap;connectable=0;strokeColor=inherit;overflow=hidden;fillColor=none;top=0;left=0;bottom=0;right=0;pointerEvents=1;" vertex="1" parent="Oq57M_BDFYK8j7h-nGXd-449">
          <mxGeometry x="1306" width="86" height="52" as="geometry">
            <mxRectangle width="86" height="52" as="alternateBounds" />
          </mxGeometry>
        </mxCell>
        <mxCell id="Oq57M_BDFYK8j7h-nGXd-466" value="" style="shape=partialRectangle;html=1;whiteSpace=wrap;connectable=0;strokeColor=inherit;overflow=hidden;fillColor=none;top=0;left=0;bottom=0;right=0;pointerEvents=1;" vertex="1" parent="Oq57M_BDFYK8j7h-nGXd-449">
          <mxGeometry x="1392" width="88" height="52" as="geometry">
            <mxRectangle width="88" height="52" as="alternateBounds" />
          </mxGeometry>
        </mxCell>
        <mxCell id="Oq57M_BDFYK8j7h-nGXd-467" value="" style="shape=partialRectangle;html=1;whiteSpace=wrap;connectable=0;strokeColor=inherit;overflow=hidden;fillColor=none;top=0;left=0;bottom=0;right=0;pointerEvents=1;" vertex="1" parent="Oq57M_BDFYK8j7h-nGXd-449">
          <mxGeometry x="1480" width="86" height="52" as="geometry">
            <mxRectangle width="86" height="52" as="alternateBounds" />
          </mxGeometry>
        </mxCell>
        <mxCell id="Oq57M_BDFYK8j7h-nGXd-468" value="" style="shape=partialRectangle;html=1;whiteSpace=wrap;connectable=0;strokeColor=inherit;overflow=hidden;fillColor=none;top=0;left=0;bottom=0;right=0;pointerEvents=1;" vertex="1" parent="Oq57M_BDFYK8j7h-nGXd-449">
          <mxGeometry x="1566" width="88" height="52" as="geometry">
            <mxRectangle width="88" height="52" as="alternateBounds" />
          </mxGeometry>
        </mxCell>
        <mxCell id="Oq57M_BDFYK8j7h-nGXd-469" value="" style="shape=partialRectangle;html=1;whiteSpace=wrap;connectable=0;strokeColor=inherit;overflow=hidden;fillColor=none;top=0;left=0;bottom=0;right=0;pointerEvents=1;" vertex="1" parent="Oq57M_BDFYK8j7h-nGXd-449">
          <mxGeometry x="1654" width="86" height="52" as="geometry">
            <mxRectangle width="86" height="52" as="alternateBounds" />
          </mxGeometry>
        </mxCell>
      </root>
    </mxGraphModel>
  </diagram>
</mxfile>
